<svg width="27" height="26" viewBox="0 0 27 26" fill="none" xmlns="http://www.w3.org/2000/svg">
<mask id="mask0_4_3581" style="mask-type:alpha" maskUnits="userSpaceOnUse" x="0" y="0" width="27" height="26">
<rect x="0.769531" y="0.034668" width="25.3787" height="25.3787" fill="#D9D9D9"/>
</mask>
<g mask="url(#mask0_4_3581)">
<path d="M13.4584 14.8412C13.1588 14.8412 12.9079 14.7397 12.7055 14.5367C12.5025 14.3343 12.401 14.0834 12.401 13.7838C12.401 13.4842 12.5025 13.2328 12.7055 13.0298C12.9079 12.8275 13.1588 12.7263 13.4584 12.7263C13.758 12.7263 14.0094 12.8275 14.2124 13.0298C14.4147 13.2328 14.5159 13.4842 14.5159 13.7838C14.5159 14.0834 14.4147 14.3343 14.2124 14.5367C14.0094 14.7397 13.758 14.8412 13.4584 14.8412ZM9.22864 14.8412C8.92903 14.8412 8.67771 14.7397 8.47468 14.5367C8.27236 14.3343 8.17119 14.0834 8.17119 13.7838C8.17119 13.4842 8.27236 13.2328 8.47468 13.0298C8.67771 12.8275 8.92903 12.7263 9.22864 12.7263C9.52825 12.7263 9.77957 12.8275 9.9826 13.0298C10.1849 13.2328 10.2861 13.4842 10.2861 13.7838C10.2861 14.0834 10.1849 14.3343 9.9826 14.5367C9.77957 14.7397 9.52825 14.8412 9.22864 14.8412ZM17.6882 14.8412C17.3886 14.8412 17.1376 14.7397 16.9353 14.5367C16.7323 14.3343 16.6308 14.0834 16.6308 13.7838C16.6308 13.4842 16.7323 13.2328 16.9353 13.0298C17.1376 12.8275 17.3886 12.7263 17.6882 12.7263C17.9878 12.7263 18.2388 12.8275 18.4411 13.0298C18.6441 13.2328 18.7457 13.4842 18.7457 13.7838C18.7457 14.0834 18.6441 14.3343 18.4411 14.5367C18.2388 14.7397 17.9878 14.8412 17.6882 14.8412ZM13.4584 19.071C13.1588 19.071 12.9079 18.9695 12.7055 18.7665C12.5025 18.5641 12.401 18.3132 12.401 18.0136C12.401 17.714 12.5025 17.463 12.7055 17.2607C12.9079 17.0576 13.1588 16.9561 13.4584 16.9561C13.758 16.9561 14.0094 17.0576 14.2124 17.2607C14.4147 17.463 14.5159 17.714 14.5159 18.0136C14.5159 18.3132 14.4147 18.5641 14.2124 18.7665C14.0094 18.9695 13.758 19.071 13.4584 19.071ZM9.22864 19.071C8.92903 19.071 8.67771 18.9695 8.47468 18.7665C8.27236 18.5641 8.17119 18.3132 8.17119 18.0136C8.17119 17.714 8.27236 17.463 8.47468 17.2607C8.67771 17.0576 8.92903 16.9561 9.22864 16.9561C9.52825 16.9561 9.77957 17.0576 9.9826 17.2607C10.1849 17.463 10.2861 17.714 10.2861 18.0136C10.2861 18.3132 10.1849 18.5641 9.9826 18.7665C9.77957 18.9695 9.52825 19.071 9.22864 19.071ZM17.6882 19.071C17.3886 19.071 17.1376 18.9695 16.9353 18.7665C16.7323 18.5641 16.6308 18.3132 16.6308 18.0136C16.6308 17.714 16.7323 17.463 16.9353 17.2607C17.1376 17.0576 17.3886 16.9561 17.6882 16.9561C17.9878 16.9561 18.2388 17.0576 18.4411 17.2607C18.6441 17.463 18.7457 17.714 18.7457 18.0136C18.7457 18.3132 18.6441 18.5641 18.4411 18.7665C18.2388 18.9695 17.9878 19.071 17.6882 19.071ZM6.0563 23.3008C5.4747 23.3008 4.97665 23.0939 4.56213 22.6801C4.14831 22.2656 3.94141 21.7675 3.94141 21.1859V6.38164C3.94141 5.80005 4.14831 5.30234 4.56213 4.88853C4.97665 4.47401 5.4747 4.26675 6.0563 4.26675H7.11375V2.15186H9.22864V4.26675H17.6882V2.15186H19.8031V4.26675H20.8606C21.4422 4.26675 21.9402 4.47401 22.3547 4.88853C22.7685 5.30234 22.9755 5.80005 22.9755 6.38164V21.1859C22.9755 21.7675 22.7685 22.2656 22.3547 22.6801C21.9402 23.0939 21.4422 23.3008 20.8606 23.3008H6.0563ZM6.0563 21.1859H20.8606V10.6114H6.0563V21.1859Z" fill="#357A67"/>
</g>
</svg>
