<svg width="444" height="309" viewBox="0 0 444 309" fill="none" xmlns="http://www.w3.org/2000/svg">
<path d="M270.895 178.385C277.881 164.833 284.475 152.022 290.999 139.365C318.535 160.125 347.09 153.629 375.311 136.99C378.762 134.964 381.248 134.601 384.783 136.473C422.713 156.577 442.034 188.304 443.557 230.914C444.102 246.03 443.473 261.188 443.752 276.304C443.85 281.305 442.104 282.591 437.326 282.563C402.19 282.395 367.04 282.353 331.904 282.591C326.358 282.633 325.702 280.495 325.38 275.647C324.528 262.501 324.57 248.95 321.203 236.376C314.427 211.146 298.082 192.76 274.961 180.522C273.131 179.558 271.3 178.566 270.895 178.357V178.385Z" fill="#357A67"/>
<path d="M118.952 282.186H2.07499C1.65587 281.571 1.18087 281.208 1.18087 280.845C1.53014 258.059 -0.327942 234.951 2.82939 212.571C7.8029 177.337 28.5491 151.967 60.5276 136.236C62.5813 135.216 66.3952 135.831 68.4908 137.13C85.8142 147.929 104.507 154.23 124.834 151.184C135.27 149.62 145.175 144.548 154.368 141.391C160.207 152.553 166.843 165.28 173.647 178.301C131.819 198.628 115.53 234.882 118.938 282.2L118.952 282.186Z" fill="#357A67"/>
<path d="M146.041 308.926C146.041 289.73 144.086 270.898 146.475 252.639C150.694 220.227 176.944 197.692 209.761 196.659C223.815 196.212 238.401 196.491 251.98 199.676C277.574 205.698 296.867 229.559 298.725 256.201C299.927 273.524 298.949 291.002 298.949 308.926H146.041Z" fill="#357A67"/>
<path d="M55.387 62.346C55.5267 27.6572 83.3141 0.107334 118.157 0.135275C152.999 0.163216 181.317 28.5234 181.136 63.1842C180.954 97.6495 152.063 126.261 117.682 126.01C82.9089 125.744 55.2473 97.4818 55.387 62.346Z" fill="#357A67"/>
<path d="M263.366 63.2263C263.17 28.5235 290.804 0.414857 325.339 0.205299C360.74 -0.00425862 389.143 28.0346 389.003 63.0726C388.877 97.5658 360.978 125.674 326.527 126.024C291.964 126.359 263.548 98.1246 263.366 63.2403V63.2263Z" fill="#357A67"/>
<path d="M181.066 127.91C181.178 104.9 199.325 86.9062 222.405 86.9062C245.191 86.9062 263.715 105.431 263.688 128.175C263.66 151.226 244.967 169.681 221.776 169.57C199.018 169.458 180.954 150.989 181.066 127.91Z" fill="#357A67"/>
</svg>
