<svg width="72" height="80" viewBox="0 0 72 80" fill="none" xmlns="http://www.w3.org/2000/svg">
<path d="M68.6139 20.9574L68.6218 20.9436L68.6294 20.9296C68.6699 20.8546 68.7128 20.7759 68.7573 20.6941C68.946 20.3477 69.1645 19.9464 69.3577 19.5457L69.926 19.577C69.4097 20.5453 68.7263 21.4961 68.1245 22.3333C67.8857 22.6655 67.6597 22.9799 67.4622 23.2703C66.8628 24.0562 66.2539 24.8345 65.6364 25.606C66.6778 24.1018 67.6943 22.5619 68.6139 20.9574ZM69.2481 17.5311L69.2516 17.4672L69.2768 17.0086C67.1168 16.8897 64.9012 17.5134 62.9867 18.0522C62.757 18.1169 62.5315 18.1804 62.311 18.2412L62.2948 18.2456L62.2787 18.2506C59.0747 19.2266 55.9376 20.4098 52.8871 21.7928L52.8864 21.7931C49.1542 23.4879 44.3168 26.0251 40.2911 29.0581C38.278 30.5749 36.4321 32.2421 35.0272 34.0203C33.6264 35.7934 32.6087 37.7473 32.374 39.8259L32.3145 40.3532L32.6491 40.7651C34.0681 42.5116 35.998 43.8667 37.7851 45.1217C38.2837 45.4718 38.7712 45.8141 39.2334 46.155L39.2353 46.1564C39.8192 46.5852 40.4075 47.0075 40.995 47.4291C42.9522 48.8338 44.899 50.2311 46.6337 51.839C48.8581 53.9009 50.6115 56.2076 51.4121 59.0905C51.9432 61.166 51.4931 63.3615 50.4318 65.4806C49.3694 67.6018 47.7401 69.548 46.1006 71.0333C35.3273 80.7007 19.6029 79.9117 8.83129 70.6121L8.8258 70.6074L8.82025 70.6027C7.6142 69.5854 6.46837 68.5013 5.38792 67.356C10.0315 70.3167 15.0868 72.7214 20.5883 73.5672C24.4684 74.2207 28.4469 73.9725 32.2158 72.8418C35.9878 71.7102 39.4485 69.7251 42.3295 67.0404L42.3417 67.0291L42.3536 67.0174C43.8635 65.534 45.1861 64.0007 45.997 61.9674L46.0183 61.9142L46.0346 61.8593C46.1097 61.6067 46.1717 61.3504 46.2203 61.0914L46.2383 60.9957L46.2415 60.8983C46.267 60.0993 45.9835 59.3321 45.6457 58.674C45.3001 58.0008 44.8299 57.3147 44.3398 56.6525L44.3279 56.6364L44.3155 56.6207C42.2872 54.0539 39.5486 51.8104 37.0465 49.7606C36.954 49.6848 36.8619 49.6094 36.7702 49.5342C36.1924 49.0266 35.5204 48.4902 34.8415 47.9482C34.6289 47.7785 34.4157 47.6083 34.2044 47.4382C33.2918 46.7036 32.3813 45.9452 31.5655 45.1413C29.924 43.5238 28.8602 41.9079 28.7916 40.1984C29.2693 35.2913 32.7066 31.1598 37.3751 27.7467C42.0414 24.3352 47.7171 21.8058 52.1748 20.0708C55.361 18.8479 58.6262 17.8413 61.948 17.058C62.4071 16.9713 62.8549 16.8808 63.2936 16.792C65.5995 16.3257 67.6533 15.9104 69.7682 16.3731C70.4394 16.6371 70.5728 16.9405 70.6192 17.1589C70.65 17.3042 70.6544 17.4856 70.6246 17.705L69.9526 17.2488L69.9304 17.1936C69.9375 17.2112 69.944 17.229 69.9499 17.2469L69.9344 17.2364L69.9212 17.2176L69.9087 17.2023L69.8939 17.184C69.8988 17.1901 69.9036 17.1963 69.9082 17.2025C69.9153 17.2122 69.922 17.2221 69.9283 17.2323L69.9176 17.225C69.9219 17.2279 69.9259 17.2311 69.9297 17.2345C69.9341 17.2415 69.9382 17.2486 69.9421 17.2558C69.9524 17.2746 69.9614 17.294 69.9691 17.314C69.9743 17.335 69.9786 17.3563 69.9822 17.3776C69.9951 17.4544 69.9977 17.5328 69.99 17.6108L69.6784 17.5773L69.5115 17.5594L69.4413 17.5519L69.305 17.5372L69.2481 17.5311Z" fill="white" stroke="white" stroke-width="2.5289"/>
<path d="M33.4443 17.2422C33.6408 11.7573 34.9952 10.3305 40.1286 10.1186C40.4594 15.407 39.2756 16.6684 33.4443 17.2422Z" fill="#43AD90"/>
<path d="M44.3447 14.4767C44.5412 8.99696 45.8956 7.57017 51.029 7.35822C51.3598 12.6467 50.176 13.908 44.3447 14.4767Z" fill="#43AD90"/>
<path d="M38.9658 7.27563C39.1623 1.79073 40.5167 0.363929 45.6501 0.151978C45.9809 5.43526 44.7971 6.69664 38.9658 7.27563Z" fill="#43AD90"/>
</svg>
