<svg width="782" height="482" viewBox="0 0 782 482" fill="none" xmlns="http://www.w3.org/2000/svg">
<path d="M280.752 210.244C282.833 211.028 283.159 209.069 283.955 208.061C287.808 203.227 290.793 197.274 295.533 193.654C306.641 185.163 311.363 172.137 319.757 161.779C325.112 155.173 325.89 154.818 333.579 158.177C334.917 158.756 336.311 159.241 337.577 159.932C339.296 160.846 340.055 161.145 341.358 158.775C343.258 155.285 346.713 153.792 350.946 155.453C354.963 157.039 355.578 160.044 354.872 163.795C354.637 165.064 353.913 166.781 354.456 167.564C356.826 170.98 354.456 172.603 352.321 174.376C350.006 176.28 347.853 175.477 345.664 173.965C344.542 173.182 343.221 172.659 341.774 171.894C342.118 173.984 342.57 175.701 342.624 177.437C342.697 179.881 342.027 182.177 339.078 182.326C336.69 182.438 337.197 183.67 337.378 185.237C338.174 192.105 338.699 192.478 345.175 190.239C347.419 189.455 349.644 188.652 352.014 187.813C350.349 185.387 347.527 183.502 349.228 180.031C350.802 176.821 353.515 175.794 356.826 175.944C358.02 176 359.232 176.429 358.563 174.376C358.4 173.891 358.725 172.752 359.051 172.64C364.75 170.924 361.258 167.023 361.095 163.981C360.842 159.26 360.498 154.538 360.028 149.836C359.757 147.111 360.951 146.196 363.447 145.655C372.999 143.565 377.613 146.719 378.427 156.517C378.789 160.902 379.024 165.362 378.626 169.711C378.318 173.107 379.494 175.328 381.918 177.269C382.805 177.978 383.673 178.724 384.614 179.34C396.518 187.029 406.758 196.36 413.397 209.162C417.721 217.504 425.572 222.375 432.085 228.57C448.584 244.246 464.288 260.762 481.492 275.692C482.65 276.7 483.555 278.211 485.852 278.454C485.129 265.54 485.653 252.775 486.992 239.133C483.121 243.089 482.614 247.736 480.696 251.637C478.978 255.145 477.512 258.765 475.794 262.274C475.233 263.412 474.274 264.831 472.827 264.103C471.56 263.468 472.411 262.05 472.772 261.042C473.369 259.363 474.003 257.683 474.781 256.059C479.122 246.971 483.121 237.771 486.504 228.234C490.285 217.578 499.005 212.148 509.805 210.86C519.448 209.722 527.589 221.386 525.237 232.191C524.025 237.733 522.795 243.276 521.402 249.602C528.692 238.461 530.827 226.872 526.648 216.384C522.65 206.381 517.367 197.032 512.7 187.383C511.668 185.256 510.42 185.778 508.774 186.152C502.207 187.607 495.622 187.85 489.055 186.077C481.529 184.043 478.869 180.441 479.303 172.678C479.719 165.194 480.262 157.711 480.57 150.209C480.751 145.637 479.376 142.315 473.894 142.053C469.1 141.83 468.033 138.433 469.118 134.402C470.493 129.214 472.266 124.138 473.84 119.006C474.31 117.457 475.233 115.796 475.052 114.303C473.297 99.9334 482.56 89.4827 487.933 77.707C489.253 74.8144 489.742 73.8066 486.576 71.9964C477.874 67.0697 476.228 57.2162 482.686 51.2257C484.948 49.1355 487.607 47.7732 490.665 48.9489C496.164 51.0391 501.827 50.5912 507.471 50.4792C522.053 50.2179 536.689 49.3595 551.125 52.0468C562.903 54.2302 573.83 58.6345 582.695 67.107C587.778 71.9591 591.595 77.1098 589.479 85.1718C588.683 88.1764 590.854 92.0021 591.758 95.4172C593.604 102.359 591.867 109.059 590.094 115.647C587.181 126.489 583.852 137.22 580.686 147.988C580.27 149.388 579.673 150.657 578.678 151.814C577.104 153.661 576.96 156.181 579.131 157.3C583.599 159.614 581.464 162.022 579.492 164.149C575.096 168.927 570.483 173.518 565.87 178.127C556.209 187.794 546.657 197.554 536.761 206.979C532.962 210.599 531.804 214.163 533.794 219.015C535.133 222.263 536.11 225.659 538.082 228.869C538.389 223.961 538.661 219.053 539.059 214.163C539.203 212.222 539.438 210.244 539.981 208.378C541.103 204.552 543.183 203.862 546.512 205.989C549.425 207.856 551.542 210.562 553.875 213.044C555.105 214.35 556.245 215.75 558.289 213.902C569.832 203.414 581.844 193.43 591.776 181.262C594.381 178.071 594.635 175.626 591.161 172.678C589.044 170.886 587.543 170.588 585.209 171.707C580.198 174.115 575.928 177.661 571.406 180.796C570.139 181.673 568.656 183.576 567.245 181.99C565.87 180.441 567.824 179.097 568.891 178.052C573.522 173.48 578.28 169.039 582.857 164.448C585.517 161.779 587.959 161.984 590.401 164.522C591.523 165.68 592.898 166.893 593.386 168.33C595.268 174.003 599.863 176.168 604.892 177.754C641.599 189.306 662.404 215.918 670.744 252.122C681.979 300.867 696.289 348.772 707.849 397.405C710.147 407.072 712.191 416.776 713.53 426.649C714.76 435.662 712.626 442.828 703.869 447.177C709.279 450.816 704.883 454.753 704.647 458.504C711.142 457.459 717.004 453.037 720.586 445.852C722.684 441.653 724.186 437.137 725.977 432.788C728.6 426.331 732.128 425.324 737.411 429.896C741.698 433.609 745.552 437.846 749.767 441.653C761.056 451.842 767.659 450.666 774.805 437.286C776.325 434.431 777.555 431.407 778.966 428.459C779.436 427.488 779.762 425.995 781.318 426.76C782.548 427.376 781.806 428.459 781.463 429.317C779.056 435.214 776.469 441.018 772.254 445.87C767.17 451.73 761.58 452.645 754.905 448.744C748.79 445.18 744.068 439.973 739.129 435.028C731.621 427.507 730.102 427.843 726.918 437.864C723.136 449.733 716.425 458.766 703.906 462.181C701.934 462.722 700.957 464.028 699.944 465.503C692.58 476.42 682.775 481.683 669.243 481.664C643.752 481.627 618.407 479.816 593.061 477.577C574.336 475.935 555.648 473.919 537.032 471.363C530.465 470.467 529.796 469.664 529.904 463.226C526.901 465.54 523.97 464.924 520.786 463.861C510.312 460.371 500.325 455.761 490.23 451.357C487.462 450.144 484.695 448.931 481.927 447.737C481.094 447.531 480.28 447.289 479.412 447.363C480.136 447.681 480.389 448.352 480.642 449.024C484.875 452.775 489.29 456.321 493.288 460.315C496.888 463.898 496.291 465.913 491.37 466.716C485.943 467.593 480.425 468.041 474.943 468.283C456.653 469.067 438.309 467.705 420.018 469.459C415.966 469.851 413.361 467.182 411.063 464.439C405.184 457.366 401.475 449.006 397.911 440.626C393.135 429.392 389.119 417.859 385.772 406.102C378.951 382.177 395.704 360.772 421.846 359.801C424.089 359.727 426.332 359.801 429.426 359.801C420.796 349.817 414.066 339.404 408.223 328.412C401.819 316.338 395.686 304.095 392.882 290.547C392.068 286.59 391.941 282.485 391.543 278.435C391.091 273.844 389.282 270 385.645 267.07C383.384 265.241 381.738 262.815 382.262 259.885C382.859 256.563 381.267 254.622 379.06 252.85C373.343 248.296 367.427 243.985 361.873 239.245C355.379 233.684 351.634 226.424 349.788 218.008C349.21 215.339 351.923 212.502 348.757 209.946C348.667 212.185 347.599 213.342 345.374 212.764C344.126 212.446 342.841 212.222 341.665 211.719C337.649 210.002 332.475 210.058 330.738 204.739C328.387 197.48 326.885 190.22 330.485 182.886C331.752 180.311 333.778 179.527 336.473 179.751C337.667 179.844 339.259 180.404 339.73 178.612C340.092 177.194 340.128 175.589 339.133 174.395C338.011 173.07 336.763 174.208 335.587 174.563C334.357 174.936 333.126 175.384 331.878 175.738C329.49 176.429 327.102 176.727 326.831 173.331C326.596 170.457 326.776 167.62 330.901 167.639C336.329 167.658 341.557 168.274 346.243 171.409C347.419 172.193 348.631 173.294 350.241 172.603C351.127 172.23 352.086 171.763 352.231 170.681C352.375 169.617 351.362 169.431 350.675 169.113C343.909 166.015 337.088 163.011 330.34 159.894C327.392 158.532 325.257 159.036 323.212 161.705C316.247 170.756 310.458 180.572 304.542 190.295C302.389 193.84 305.338 195.744 307.853 197.106C312.285 199.514 317.224 200.652 322.037 202.014C327.464 203.545 327.808 204.608 323.954 208.527C319.612 212.932 315.252 217.317 310.711 221.498C304.651 227.077 300.942 234.468 295.696 240.663C290.938 246.262 285.746 251.413 279.359 255.126C277.333 256.321 275.054 257.851 272.593 256.041C270.386 254.417 270.965 251.991 271.146 249.733C271.671 243.575 272.195 237.416 271.815 231.034C268.704 241.335 265.339 251.581 262.517 261.957C257.74 279.555 253.706 297.34 251.029 315.405C250.486 319.025 251.644 320.686 254.864 321.918C261.684 324.493 268.179 328.337 275.18 329.812C281.331 331.099 287.953 329.27 294.104 327.292C296.836 326.415 299.386 324.941 302.028 323.728C302.462 323.112 302.95 323.131 303.439 323.653C307.111 325.239 309.517 328.449 312.557 330.838C314.963 332.741 317.496 334.589 320.191 335.989C323.773 337.855 326.089 339.777 322.254 343.995C332.33 343.995 341.865 343.36 351.308 345.04C358.671 346.365 365.89 348.175 372.24 352.393C380.96 358.196 384.162 367.061 383.89 376.896C383.257 400.428 378.662 423.14 367.898 444.284C365.745 448.502 362.905 452.346 359.16 455.313C355.27 458.374 351.037 459.96 346.08 457.59C341.467 455.369 336.835 456.582 332.367 458.113C327.934 459.624 323.665 461.621 319.232 463.189C312.141 465.708 310.368 464.588 309.735 456.713C308.92 446.561 310.368 436.502 311.815 426.499C312.81 419.613 314.384 412.801 318.129 405.635C308.794 409.33 300.598 413.119 291.897 415.265C283.737 417.28 275.452 418.922 267.148 420.229C260.762 421.237 254.303 420.154 248.966 416.459C240.5 410.599 231.689 410.898 222.445 413.361C202.707 418.624 183.838 426.443 164.516 432.938C151.292 437.379 137.959 441.503 123.721 440.589C113.047 439.917 103.821 435.196 94.793 429.989C88.7505 426.499 82.7985 422.897 76.7561 419.408C56.6568 407.781 36.666 410.674 16.7657 420.024C12.062 422.226 7.59342 424.857 3.3239 427.824C2.5098 428.384 1.53287 429.821 0.465492 428.459C-0.891348 426.742 1.0625 426.182 1.94897 425.585C26.3902 409.442 55.1009 401.1 84.1011 420.49C92.2964 425.977 100.89 430.997 110.08 434.729C121.731 439.469 133.526 438.611 145.394 435.756C164.48 431.165 182.517 423.345 201.079 417.15C209.672 414.276 218.32 411.626 228.27 409.106C219.224 408.658 211.337 408.416 203.467 407.819C180.22 406.064 156.882 404.646 134.105 399.178C121.025 396.043 118.004 396.062 119.469 378.221C119.994 371.932 122.129 365.829 121.134 359.335C120.808 357.226 121.478 354.688 122.454 352.71C127.9 341.681 130.541 329.718 134.051 318.036C134.322 317.103 134.63 316.17 134.974 315.255C137.597 308.332 137.615 308.556 143.802 312.027C170.885 327.199 198.636 340.841 229.5 346.439C238.401 348.044 247.465 348.94 256.456 349.948C258.79 350.209 261.359 350.601 263.475 348.772C256.908 346.719 254.014 339.796 247.682 336.455C247.591 338.527 247.465 340.244 247.447 341.942C247.392 344.256 246.651 346.178 244.353 346.962C242.146 347.727 240.662 346.215 239.287 344.834C237.334 342.838 235.633 340.542 234.837 337.892C233.661 334.01 232.123 334.72 229.97 336.959C228.849 338.135 227.564 339.143 226.388 340.262C224.435 342.11 222.227 342.707 219.677 341.755C192.992 331.752 166.326 321.787 141.287 307.902C134.322 304.039 131.717 298.422 131.156 290.901C129.42 267.369 131.428 243.929 132.821 220.49C133.146 214.947 133.599 209.423 133.96 203.881C134.015 203.003 134.557 201.548 133.418 201.343C128.045 200.353 128.605 195.651 128.027 192.18C125.91 179.527 125.403 166.781 130.017 154.52C134.105 143.677 141.884 135.167 148.777 126.135C161.115 109.992 174.412 94.5774 185.557 77.5017C188.958 72.295 191.328 66.6031 193.788 60.9299C194.765 58.6905 194.819 57.2721 192.142 56.5817C191.382 56.395 190.64 55.9658 189.971 55.4993C188.704 54.6408 186.497 54.2302 187.13 52.1401C187.673 50.3112 189.699 50.9831 190.984 51.1697C196.14 51.9535 198.944 50.05 201.278 45.0672C206.958 32.9183 214.249 21.7398 224.453 12.782C242.345 -2.95003 261.974 -1.73701 282.127 7.18342C291.86 11.4943 300.49 17.5781 306.587 26.6479C309.409 30.8281 308.866 32.2651 304.597 33.6461C302.552 33.7954 300.526 33.4035 298.5 33.5528C281.621 33.6461 265.52 36.744 250.088 44.1155C236.519 50.5912 221.793 53.2598 206.85 54.4542C205.439 54.5662 203.937 54.2302 202.092 55.4993C208.659 57.9067 215.063 59.1197 221.576 59.6049C229.428 60.1834 237.062 59.7729 243.828 54.8647C245.782 53.4464 248.152 52.5693 250.486 51.9535C264.235 48.3517 276.772 41.932 289.273 35.4003C291.752 34.1126 294.393 33.3848 297.234 33.5528C299.73 33.6461 302.263 33.1982 304.651 34.3552C313.389 37.3038 314.891 45.0672 316.175 52.6067C319.052 69.5517 313.823 85.0971 307.184 100.288C303.403 108.947 298.174 116.431 290.196 121.749C287.537 123.522 286.343 125.762 287.718 129.233C289.255 133.152 290.196 137.313 291.354 141.363C294.158 151.123 294.339 160.678 291.3 170.625C287.917 181.636 285.818 193.019 283.014 204.198C282.489 206.307 282.742 208.826 280.626 210.338C277.804 214.593 277.55 219.445 277.188 224.371C276.591 232.153 275.994 239.954 274.927 247.699C274.764 248.949 274.258 250.461 275.578 251.301C276.899 252.14 278.057 251.058 279.088 250.368C285.094 246.374 290.594 241.54 294.447 235.569C300.617 225.995 308.577 218.194 316.446 210.226C319.269 207.377 318.853 205.349 315.198 204.142C311.508 202.91 307.708 201.809 304.524 199.495C301.666 197.424 300.49 198.618 299.784 201.38C298.12 207.856 296.998 214.443 296.094 221.068C295.804 223.177 295.497 225.267 295.026 227.339C294.429 229.933 293.724 232.9 290.793 233.311C287.446 233.777 287.175 230.343 286.469 228.869C285.963 233.852 285.04 239.432 283.593 244.937C283.213 246.355 282.598 247.941 280.897 248.072C278.889 248.221 278.274 246.43 277.767 244.9C276.501 241.093 276.971 237.136 277.008 233.236C277.044 227.712 277.333 222.225 278.003 216.701C278.328 214.07 280.825 212.838 280.572 210.319L280.752 210.244Z" fill="#1A1A1A"/>
<path d="M325.129 185.779C325.563 187.795 325.4 190.09 324.586 192.498C323.284 196.398 320.986 197.518 317.368 195.409C315.848 194.532 314.509 193.337 313.008 192.404C311.018 191.154 311.162 189.698 312.881 188.653C314.799 187.478 315.685 186.022 315.36 183.876C314.6 178.669 319.774 177.885 322.017 177.531C325.256 177.008 325.038 181.188 325.111 183.913C325.111 184.398 325.111 184.884 325.111 185.779H325.129Z" fill="white"/>
<path d="M298.734 32.6566C300.869 32.1714 302.877 32.3767 304.777 33.5524C304.885 33.7763 304.903 34.0189 304.831 34.2615C302.172 34.2615 299.494 34.2615 296.835 34.2615C296.618 32.7126 298.155 33.2538 298.734 32.6566Z" fill="#939393"/>
<path d="M480.678 448.951C479.068 447.85 477.223 447.047 475.522 444.285C478.254 445.722 480.099 446.693 481.944 447.663C481.51 448.092 481.094 448.521 480.66 448.951H480.678Z" fill="#BFBEBE"/>
<path d="M549.769 335.951C572.256 322.664 593.748 307.977 613.233 290.454C619.999 284.351 626.041 277.558 632.138 270.784C653.847 246.691 641.147 218.81 625.39 205.056C614.517 195.576 601.908 192.236 587.887 197.853C582.821 199.887 578.715 203.321 574.843 207.053C559.972 221.442 547.435 237.92 533.758 253.372C526.54 261.528 519.357 269.739 511.108 276.868C507.779 279.742 504.36 282.522 500.271 284.221C493.813 286.908 489.38 284.332 488.729 277.39C487.752 266.958 488.421 256.545 489.091 246.113C489.362 241.783 491.135 237.323 488.06 232.975C487.336 231.93 488.747 228.944 489.742 227.152C494.048 219.389 500.723 214.779 509.425 213.604C517.096 212.577 524.622 221.74 523.066 230.026C521.926 236.11 520.497 242.138 519.231 248.203C518.941 249.64 518.634 251.096 518.598 252.551C518.579 253.913 517.838 255.836 519.556 256.451C521.329 257.086 521.981 255.127 522.65 253.969C528.457 244.135 532.763 233.871 531.75 221.852C533.089 225.081 534.391 228.347 535.82 231.538C536.399 232.844 537.123 234.486 538.896 234.169C540.687 233.833 540.651 231.967 540.814 230.586C541.483 224.428 540.651 218.176 541.989 212.055C542.315 210.543 541.827 208.397 543.726 207.874C545.463 207.408 546.567 209.162 547.706 210.263C549.696 212.185 551.524 214.257 553.496 216.198C555.341 217.989 557.204 218.456 559.429 216.478C570.085 206.941 580.849 197.536 590.546 186.954C591.198 186.227 591.74 185.387 592.464 184.752C594.725 182.737 594.979 178.314 597.964 177.978C600.515 177.698 603.282 180.012 606.05 180.927C638.126 191.359 657.068 214.649 666.439 245.945C673.567 269.776 677.981 294.391 684.512 318.428C692.707 348.586 701.264 378.65 707.904 409.2C709.188 415.078 710.256 421.031 711.016 427.003C712.499 438.536 707.216 445.161 695.566 446.822C684.367 448.409 673.639 446.393 663.164 442.549C658.135 440.701 653.449 438.163 648.782 435.494C636.896 428.72 623.599 427.563 610.374 426.201C595.069 424.615 579.619 424.894 564.386 422.338C555.739 420.901 548.9 417.094 543.925 409.76C538.516 401.81 534.12 393.337 530.429 384.547C530.809 384.193 531.026 383.801 531.261 383.801C533.107 383.782 535.386 385.424 536.707 383.465C537.901 381.711 536.237 379.751 535.513 377.997C534.192 374.843 532.6 371.82 531.334 368.647C528.692 362.06 528.91 361.462 534.717 357.525C545.065 350.489 556.064 344.611 567.064 338.695C574.192 334.85 581.392 331.155 588.556 327.348C590.203 326.471 592.138 325.799 592.952 322.776C578.642 326.844 565.526 332.462 552.139 337.314C550.927 337.65 549.733 337.948 549.787 335.989L549.769 335.951Z" fill="#357A67"/>
<path d="M697.845 463.786C691.839 471.624 685.833 477.95 675.34 478.566C655.186 479.742 635.159 478.211 615.132 476.774C590.565 475.02 566.087 472.463 541.646 469.291C540.687 469.16 539.71 469.104 538.751 468.936C531.533 467.705 530.737 465.652 535.477 459.699C538.444 455.966 542.876 453.932 546.495 450.946C549.118 448.763 551.849 446.729 554.418 444.489C555.811 443.276 558.037 441.839 556.499 439.73C555.106 437.846 553.17 439.562 551.759 440.384C545.789 443.855 540.959 448.725 536.581 453.988C533.885 457.217 530.321 459.102 527.173 461.621C525.02 463.338 523.066 461.808 521.239 461.154C503.817 454.996 487.155 447.065 470.475 439.133C465.193 436.633 460.091 433.871 455.116 430.791C453.578 429.84 451.461 426.984 449.906 429.653C448.675 431.78 451.896 432.546 453.397 433.348C465.916 440.085 476.735 449.192 487.571 458.243C489.272 459.661 491.208 461.005 492.329 463.636C488.386 464.887 484.424 465.223 480.462 465.353C460.38 466.062 440.245 465.241 420.182 466.622C416.328 466.884 414.32 464.215 412.348 461.658C405.51 452.794 401.421 442.474 397.423 432.154C394.366 424.278 391.815 416.179 389.246 408.117C381.81 384.79 395.216 364.56 419.44 362.582C425.826 362.059 432.249 361.275 437.821 366.184C440.516 368.554 444.406 368.554 447.554 366.967C451.226 365.12 454.591 365.661 458.336 366.333C479.702 370.233 500.615 375.962 521.673 381.15C525.183 382.009 527.426 383.577 528.837 387.253C531.768 394.848 535.839 401.903 540.09 408.864C546.259 418.96 555.178 423.886 566.72 425.361C582.333 427.358 598.091 427.414 613.721 429.074C627.145 430.493 640.008 433.199 652.075 440.16C666.421 448.427 682.142 451.935 698.804 448.987C693.902 454.399 688.691 455.425 680.731 452.309C674.634 449.939 668.375 448.464 661.79 448.651C660.342 448.688 658.859 448.781 657.466 449.173C655.621 449.696 653.504 450.293 653.359 452.719C653.233 454.996 654.915 456.116 656.76 457.011C667.199 462.05 678.307 463.804 689.777 463.786C692.201 463.786 694.625 463.786 697.827 463.786H697.845Z" fill="#D1D1D1"/>
<path d="M330.883 397.2C328.44 396.341 326.486 397.703 324.587 398.804C307.075 408.919 288.043 414.35 268.233 417.354C261.123 418.437 254.411 416.963 248.278 412.988C246.252 411.681 244.027 410.636 241.784 409.74C239.196 408.714 235.705 409.908 234.764 405.317C234.384 403.433 230.694 403.059 228.306 402.63C214.14 400.055 199.939 397.722 185.809 394.941C169.401 391.713 152.901 389.567 136.149 389.529C131.246 389.529 127.899 388.634 128.117 382.233C128.261 378.164 126.452 373.984 125.367 369.916C124.86 367.994 124.426 366.165 124.951 364.168C126.561 357.897 127.23 357.394 133.652 358.252C165.674 362.526 197.623 361.536 229.572 357.338C261.666 353.12 293.705 348.175 326.052 346.271C338.734 345.525 351.271 346.476 363.429 350.769C374.808 354.8 381.285 362.899 381.249 374.88C381.194 398.786 376.4 421.777 365.455 443.201C363.664 446.691 361.294 449.826 358.363 452.439C354.853 455.574 351.127 457.03 346.423 454.66C342.081 452.476 337.504 453.559 333.162 454.996C327.952 456.731 322.778 458.653 317.712 460.762C314.438 462.125 312.719 461.434 312.556 457.814C311.796 441.708 313.334 425.883 318.653 410.599C320.173 406.232 322.796 402.518 327.554 400.857C329.11 400.316 331.1 399.719 330.883 397.181V397.2Z" fill="#D1D1D1"/>
<path d="M492.799 288.101C501.755 288.306 507.435 283.566 512.935 278.751C526.648 266.695 538.045 252.419 549.895 238.59C558.253 228.83 566.738 219.219 575.585 209.888C595.377 189.024 619.42 198.206 631.613 215.617C637.041 223.362 639.971 232.096 641.183 241.446C642.034 248.108 639.754 253.968 636.48 259.529C628.085 273.805 616.199 284.891 603.626 295.229C577.068 317.083 548.556 335.838 516.915 349.461C503.853 355.078 490.827 355.508 478.326 347.632C477.006 346.792 474.618 345.878 475.034 344.478C475.721 342.164 478.254 340.989 480.316 339.664C482.487 338.264 483.157 340.429 484.134 341.455C488.023 345.561 492.564 348.603 497.901 350.301C501.357 351.402 505.12 352.092 507.869 348.957C510.565 345.878 509.118 342.351 507.471 339.365C504.251 333.524 500.597 327.944 497.34 322.14C493.794 315.832 494.283 313.388 499.783 308.647C502.116 306.632 504.74 304.971 507.091 302.974C508.792 301.537 511.09 300.119 510.673 297.525C510.221 294.67 507.489 294.054 505.156 293.401C501.158 292.281 496.942 291.721 492.799 288.082V288.101Z" fill="white"/>
<path d="M263.295 345.676C260.238 344.202 258.772 342.037 256.891 340.376C254.466 338.23 252.133 335.953 249.509 334.05C247.158 332.333 245.566 333.266 245.168 336.158C245.077 336.793 245.186 337.465 245.113 338.118C244.914 340.152 246.018 343.231 243.793 343.847C241.025 344.631 240.174 341.272 238.745 339.424C238.456 339.051 238.275 338.566 238.058 338.137C233.915 330.093 233.879 330.056 226.859 336.382C224.598 338.417 222.572 340.003 219.152 338.696C193.879 329.123 168.66 319.456 144.725 306.71C137.959 303.108 134.196 298.293 133.816 290.343C133.219 277.616 133.201 264.888 133.762 252.18C134.703 230.681 135.716 209.164 138.357 187.777C140.166 173.202 142.681 158.72 150.026 145.694C155.164 136.606 162.346 130.709 173.418 131.101C184.164 131.474 191.129 137.278 195.797 146.534C197.787 150.49 198.926 154.727 199.686 159.075C201.694 170.776 199.94 182.197 196.376 193.301C188.614 217.45 184.363 242.289 181.251 267.37C180.944 269.908 180.256 270.599 177.724 271.719C173.219 273.697 170.071 278.064 166.996 282.02C165.801 283.569 167.285 284.651 168.75 284.166C173.327 282.599 178.429 281.553 181.794 278.008C183.947 275.75 184.996 276.589 186.733 277.672C198.51 285.193 209.437 293.889 220.564 302.287C228.849 308.539 236.719 315.388 245.964 320.277C246.814 320.725 247.936 321.154 247.954 322.218C248.116 330.037 254.195 333.975 258.664 338.976C260.292 340.805 262.445 342.317 263.331 345.676H263.295Z" fill="#E2E2E2"/>
<path d="M159.83 129.587C177.975 119.398 205.799 118.353 216.491 149.537C219.639 158.7 223.113 167.714 229.354 175.104C242.959 191.172 243.682 208.901 237.188 227.88C235.179 233.721 233.334 239.637 231.435 245.515C230.964 246.971 229.625 248.837 231.507 249.826C233.28 250.759 234.329 248.707 235.342 247.55C239.087 243.313 242.524 238.778 247.301 234.542C247.427 239.002 245.021 241.727 243.501 244.732C241.656 248.352 239.521 251.823 237.64 255.406C237.133 256.358 236.572 257.515 237.549 258.597C238.671 259.829 239.992 259.307 241.131 258.765C244.116 257.366 246.523 255.164 248.621 252.663C259.856 239.245 262.081 223.812 258.571 207.146C256.292 196.304 253.361 185.61 249.218 175.328C241.71 156.74 240.317 137.78 244.822 118.278C245.365 115.927 245.365 113.426 245.491 110.981C245.582 109.32 245.473 107.547 243.592 106.894C241.982 106.334 240.408 106.801 239.033 107.883C235.523 110.608 234.058 114.602 232.502 118.539C231.344 121.507 230.783 124.735 228.558 127.833C226.622 124.511 226.17 121.227 225.881 117.905C224.578 103.61 226.043 89.5573 229.662 75.7288C231.579 68.4133 235.27 62.9267 243.737 61.6577C249.58 60.7806 255.206 58.5225 261.14 56.8242C260.923 57.4401 260.923 57.8133 260.742 57.9253C246.704 66.3045 246.016 79.4239 248.44 93.5137C249.544 99.9334 250.702 106.39 252.637 112.586C254.103 117.233 253.886 121.339 252.565 125.892C250.774 131.976 249.58 138.228 248.259 144.424C245.853 155.863 249.508 165.959 255.333 175.552C258.698 181.113 261.773 186.88 265.392 192.273C272.881 203.47 274.564 215.208 270.186 228.048C260.218 257.328 252.619 287.225 247.988 318.11C241.511 315.348 236.464 310.982 231.145 307.063C215.876 295.791 201.439 283.343 185.013 273.695C183.402 272.743 183.294 271.68 183.493 270.075C186.677 243.836 191.308 217.933 199.232 192.646C204.316 176.41 205.401 159.932 197.55 144.05C190.856 130.52 175.768 124.903 161.747 130.464C160.716 131.043 159.866 131.211 159.848 129.569L159.83 129.587Z" fill="#357A67"/>
<path d="M518.941 78.827C515.811 84.5002 512.952 89.5763 510.184 94.7083C508.972 96.9664 508.846 99.3365 511.523 100.494C518.904 103.703 521.546 109.806 522.631 117.289C523.12 120.704 523.536 125.407 527.317 126.303C531.17 127.217 532.201 122.347 534.445 119.977C536.905 117.383 538.986 114.434 541.971 112.381C547.235 108.779 551.161 109.545 554.616 114.975C557.891 120.145 558.072 126.079 558.452 131.939C558.723 136.007 558.452 140.094 559.392 144.107C560.93 150.769 564.621 153.867 571.278 154.053C572.78 154.091 575.059 152.784 575.222 155.938C575.367 158.794 580.342 160.492 575.91 164.653C562.052 177.679 548.809 191.34 535.349 204.777C532.021 208.098 528.312 211.346 530.211 217.094C525.906 206.829 520.822 197.125 515.648 187.514C514.219 184.846 514.979 183.726 517.204 182.084C523.825 177.213 528.945 170.905 532.979 163.739C533.721 162.433 535.168 160.622 533.703 159.297C531.966 157.692 530.338 159.54 529.108 160.641C522.722 166.445 516.733 172.622 512.5 180.273C511.686 181.748 510.962 182.979 509.117 183.39C501.881 184.976 494.698 185.331 487.589 182.737C483.608 181.281 481.546 178.575 481.872 174.171C482.324 168.162 482.758 162.134 483.066 156.106C483.21 153.344 483.03 150.582 482.975 147.802C482.885 143.005 480.605 140.038 475.721 139.702C471.415 139.404 470.474 137.463 471.94 133.563C473.26 130.073 474.129 126.415 475.359 122.888C476.987 118.241 478.398 113.632 477.693 108.593C477.403 106.521 477.548 104.375 478.543 102.378C482.433 94.5217 486.358 86.665 490.157 78.7523C491.659 75.6358 493.595 74.9453 497.086 75.6544C504.033 77.0727 511.143 77.7446 518.868 78.827H518.941Z" fill="white"/>
<path d="M241.006 254.435C243.086 250.833 245.203 247.25 247.211 243.592C248.224 241.745 249.219 239.841 249.834 237.844C250.485 235.754 251.698 233.067 249.31 231.611C247.102 230.268 245.438 232.619 243.991 234C241.241 236.631 238.708 239.505 235.759 242.081C238.256 232.918 241.06 223.96 242.923 214.722C245.275 203.096 243.918 192.122 237.243 182.456C228.993 170.493 222.191 157.971 216.981 144.31C211.589 130.165 200.97 121.3 185.357 120.815C168.424 120.292 154.15 125.592 145.665 141.81C138.808 154.892 136.402 169.131 134.304 183.482C133.671 187.793 133.815 192.234 132.35 196.695C127.158 184.415 128.786 159.875 135.624 148.995C145.43 133.393 157.623 119.583 168.822 105.027C179.405 91.2358 190.549 77.7992 196.664 61.1527C197.352 59.2865 198.166 58.6893 200.264 59.2865C210.576 62.1978 221.033 64.3066 231.906 63.7654C223.584 80.02 222.498 97.3756 222.951 115.011C223.041 118.781 223.656 122.457 224.904 126.022C225.646 128.112 225.918 130.948 228.776 130.93C231.309 130.93 231.779 128.298 232.521 126.358C233.57 123.633 234.402 120.815 235.56 118.128C236.519 115.907 237.659 113.723 238.979 111.708C239.703 110.588 240.77 108.965 242.381 109.748C243.774 110.42 243.086 112.1 242.923 113.332C242.091 119.471 241.367 125.63 240.3 131.714C238.256 143.433 239.884 154.761 243.502 165.902C248.278 180.589 253.887 195.052 256.564 210.337C259.024 224.37 257.016 237.62 248.097 249.209C246.324 251.505 244.461 253.763 241.042 254.472L241.006 254.435Z" fill="#357A67"/>
<path d="M501.952 348.529C495.982 347.708 490.863 344.461 486.43 340.001C482.143 335.69 480.315 335.242 476.01 339.59C472.663 342.968 470.799 342.072 468.104 339.068C452.22 321.339 438.597 301.949 426.132 281.701C421.103 273.546 415.929 265.465 410.7 257.44C408.638 254.287 407.191 250.498 402.27 250.312C400.66 250.256 399.484 248.333 400.931 245.777C405.834 237.155 412.401 230.623 421.465 226.48C423.69 225.454 424.866 225.23 426.639 227.003C435.992 236.259 445.454 245.403 454.915 254.548C464.829 264.14 475.575 272.949 485.128 282.821C491.405 289.315 497.104 295.044 506.168 296.687C508.737 297.153 507.977 298.833 506.403 300.083C503.599 302.285 500.704 304.394 497.972 306.689C491.64 312.027 490.989 315.405 494.625 322.832C497.972 329.7 503.201 335.503 505.969 342.688C507.416 346.458 506.059 348.492 501.934 348.567L501.952 348.529Z" fill="white"/>
<path d="M384.959 259.644C392.141 259.961 399.214 259.719 404.461 253.224C410.268 260.577 414.881 268.639 419.73 276.496C434.203 299.917 449.237 322.927 468.341 342.895C470.078 344.705 469.824 345.694 468.178 347.15C466.604 348.55 465.229 350.173 463.746 351.685C452.077 363.386 451.498 363.535 435.65 360.344C433.714 359.952 432.448 358.851 431.29 357.507C414.393 337.67 402.489 315.107 395.325 290.026C394.674 287.712 394.601 285.192 394.565 282.748C394.438 275.619 392.919 269.162 386.931 264.515C385.483 263.376 384.651 261.809 384.94 259.644H384.959Z" fill="white"/>
<path d="M523.555 100.306C523.519 93.7558 525.853 88.4185 526.812 82.8199C527.463 79.0689 525.979 77.5759 522.614 76.5122C513.153 73.5263 503.655 71.3988 493.596 71.772C487.3 71.996 481.294 65.1657 481.638 59.3618C481.982 53.4833 486.269 50.3108 491.877 51.9903C497.124 53.5766 502.479 53.1101 507.798 53.0727C521.239 52.9794 534.717 52.065 548.087 54.0991C561.004 56.0587 572.763 60.7615 582.225 70.1858C585.246 73.1903 587.779 76.5682 587.634 81.1963C586.657 82.1294 586.223 81.0844 585.662 80.7484C584.269 79.946 582.84 79.5541 581.899 81.2337C581.067 82.708 581.537 84.3875 582.858 85.134C590.891 89.6875 590.42 97.6375 589.57 104.729C587.906 118.744 582.967 132.032 578.57 146.177C578.57 138.731 578.516 132.162 578.57 125.593C578.643 118.259 578.878 110.925 578.932 103.572C578.932 101.799 578.48 100.026 578.154 98.272C577.847 96.6111 577.141 95.0062 575.423 94.521C573.378 93.9611 572.04 95.4354 571.081 96.947C569.453 99.4851 568.005 102.154 566.088 105.457C564.785 100.437 563.862 96.0699 562.487 91.871C561.185 87.8773 558.869 87.6347 556.318 91.0125C553.985 94.0917 552.555 97.8428 549.154 100.81C548.105 96.7231 549.245 92.9347 549.046 89.1837C548.774 84.0889 546.766 82.7639 542.225 85.2273C535.333 88.9597 530.213 94.9875 523.519 100.288L523.555 100.306Z" fill="#332F2F"/>
<path d="M306.117 30.9215C293.761 29.1112 282.526 29.951 271.364 32.2278C261.287 34.2806 252.278 39.1327 242.816 42.8465C229.736 47.9785 215.987 49.7514 201.297 50.8524C210.053 33.2915 219.062 16.5891 236.738 7.70596C255.371 -1.64369 272.974 4.17885 289.6 14.1257C296.113 18.026 301.956 22.8968 306.135 30.9215H306.117Z" fill="#332F2F"/>
<path d="M360.951 174.078C365.817 172.006 369.001 172.921 373.054 174.936C380.923 178.855 387.147 184.827 394.184 189.754C400.788 194.363 405.365 200.932 409.562 207.8C412.33 212.353 415.568 216.646 418.607 221.05C407.789 225.734 399.992 233.516 393.804 243.799C383.782 236.11 371.661 230.176 364.008 218.699C362.072 215.787 358.979 214.332 355.505 213.38C357.821 211.364 360.426 211.663 362.724 210.991C365.528 210.151 365.311 208.826 363.321 207.427C359.702 204.87 355.614 203.321 351.272 202.556C348.233 202.015 347.256 203.9 347.382 206.848C343.619 203.321 346.369 196.304 339.911 194.513C341.81 193.953 343.873 193.692 345.609 192.796C351.724 189.661 357.079 190.575 361.982 195.24C362.796 196.006 363.791 196.603 364.786 197.144C365.636 197.611 366.668 197.965 367.427 197.013C368.44 195.744 367.482 194.867 366.559 194.214C362.724 191.508 358.744 188.989 354.999 186.171C353.244 184.846 350.06 183.633 352.068 180.535C353.913 177.717 356.862 178.053 359.449 179.546C363.502 181.897 367.427 184.491 371.407 186.992C372.366 187.589 373.253 188.354 374.248 188.858C375.279 189.362 376.509 190.874 377.54 189.231C378.3 188.037 376.925 187.16 376.093 186.488C373.072 184.043 369.942 181.729 366.903 179.284C365.039 177.792 363.284 176.149 360.933 174.078H360.951Z" fill="white"/>
<path d="M247.302 352.393C220.744 355.641 195.091 359.448 169.076 358.347C156.629 357.824 144.182 357.059 131.808 355.473C129.257 355.155 126.688 354.969 123.667 357.768C125.802 350.359 129.257 344.835 130.903 338.64C132.966 330.951 135.354 323.337 137.561 315.704C138.339 313.035 139.189 312.084 142.192 313.838C165.566 327.61 190.098 338.733 216.222 346.216C224.815 348.68 233.698 349.482 242.454 350.9C243.829 351.124 245.312 350.9 247.284 352.412L247.302 352.393Z" fill="#357A67"/>
<path d="M261.974 149.332C261.432 142.968 262.951 137.762 263.548 132.48C263.711 131.137 264.543 129.308 262.788 128.543C261.015 127.778 260.328 129.588 259.496 130.707C253.58 138.695 251.536 147.149 255.57 156.797C257.958 162.507 260.292 168.199 263.584 173.462C269.247 182.532 271.979 192.796 275.416 202.78C275.886 204.161 275.868 205.654 275.145 207.557C271.201 194.793 263.856 184.211 257.072 173.443C249.528 161.425 249.021 149.052 252.549 135.933C253.761 131.379 254.864 126.788 256.203 122.272C256.873 120.014 257.09 117.849 255.859 114.528C260.147 118.82 264.507 120.201 269.392 119.921C274.367 119.641 278.455 118.204 280.554 112.941C281.621 110.273 283.684 108.033 285.258 105.551C287.519 102.005 289.509 99.0941 294.828 101.222C298.79 102.808 301.558 100.102 300.111 95.9589C296.13 84.687 299.586 74.6096 303.548 64.3455C305.122 60.2585 305.827 55.8543 305.665 51.3941C305.429 45.0677 304.688 39.0585 296.528 37.4536C303.801 35.0649 308.758 37.4536 311.49 44.2839C315.416 54.1747 315.253 64.4015 313.227 74.6096C311.182 84.8737 307.419 94.5592 302.607 103.853C299.55 109.731 295.443 114.64 290.106 118.577C284.245 122.907 283.883 124.12 285.909 131.417C286.994 135.336 288.207 139.217 289.31 143.118C291.789 151.777 291.752 160.287 289.202 169.076C285.71 181.095 283.069 193.337 280.047 205.579C278.311 205.057 278.473 203.657 278.636 202.5C280.608 187.85 276.556 173.667 275.308 159.26C274.837 153.904 273.987 148.604 273.317 143.267C273.155 141.979 273.317 140.505 271.762 139.982C270.296 139.479 269.301 140.505 268.451 141.494C266.461 143.827 264.543 146.197 261.992 149.295L261.974 149.332Z" fill="#FEFEFE"/>
<path d="M253.292 84.3137C252.64 77.7447 255.245 72.6126 258.791 67.1634C263.531 59.8479 269.881 55.2943 277.226 51.3567C281.767 48.9119 285.783 45.4968 290.198 42.7908C297.796 38.144 302.138 40.4394 302.898 49.3038C303.549 57.0112 301.613 64.3267 298.465 71.101C295.01 78.5472 294.865 85.6574 297.181 93.3274C298.863 98.9074 298.176 99.4672 292.73 98.2169C289.528 97.4704 287.213 98.0676 285.259 100.998C282.816 104.637 279.868 107.977 278.076 112.008C275.869 116.972 271.654 117.719 267.186 117.42C262.59 117.103 258.791 115.143 257.109 110.31C254.16 101.875 253.744 93.0848 253.292 84.3324V84.3137Z" fill="white"/>
<path d="M559.429 91.7232C561.962 96.6313 561.872 101.502 563.337 105.944C563.843 107.493 564.223 109.396 566.123 109.433C567.751 109.452 568.203 107.623 568.891 106.354C570.537 103.275 571.749 99.8785 574.445 97.3031C576.489 99.3933 576.182 101.745 576.272 103.928C576.941 118.764 575.114 133.545 575.042 148.381C575.042 150.527 574.011 151.162 572.165 151.423C566.865 152.169 562.668 148.959 561.835 142.857C561.13 137.706 561.039 132.462 560.623 127.274C560.225 122.385 559.465 117.589 556.643 113.371C552.265 106.839 546.385 105.776 540.053 110.516C536.779 112.961 534.21 116.114 531.677 119.306C530.501 120.799 529.289 122.254 528.041 123.822C523.645 117.738 524.803 110.348 521.836 104.208C527.082 102.379 530.194 97.5271 534.572 94.2799C537.557 92.0591 540.452 89.7077 543.473 87.5429C545.39 86.1619 546.494 86.9084 546.422 89.2225C546.331 92.8056 546.132 96.3887 545.969 99.9718C545.897 101.483 545.897 103.163 547.362 103.872C549.063 104.712 550.619 103.536 551.614 102.305C554.219 99.0387 556.625 95.5862 559.447 91.7605L559.429 91.7232Z" fill="#332F2F"/>
<path d="M525.436 379.452C501.899 373.48 479.177 367.433 457.124 363.402C461.502 358.532 466.169 353.4 470.728 348.193C472.049 346.681 473.044 347.111 474.383 348.1C487.499 357.785 501.628 357.953 516.3 352.523C518.833 351.589 520.027 350.824 519.267 354.893C518.344 359.894 520.696 364.765 522.035 369.598C522.885 372.715 524.115 375.719 525.418 379.47L525.436 379.452Z" fill="#FEFEFE"/>
<path d="M298.735 32.6563L296.835 34.2612C293.452 34.8024 290.196 35.9034 287.283 37.6763C275.451 44.8612 262.57 49.5453 249.491 53.7443C245.619 54.9946 242.001 56.7862 238.654 59.1003C236.953 60.276 235.253 60.7239 233.263 60.8918C223.132 61.6756 213.254 60.1267 203.539 57.4953C202.11 57.1034 199.287 57.7939 199.523 55.1813C199.722 52.7925 202.2 53.371 203.883 53.2591C215.678 52.4379 227.401 50.9077 238.636 47.1006C246.27 44.5253 253.543 40.9422 261.105 38.0869C273.226 33.5147 285.836 31.9098 298.735 32.6936V32.6563Z" fill="#332F2F"/>
<path d="M280.752 210.245C277.875 220.117 278.581 230.269 278.69 240.347C278.726 242.81 278.111 246.953 280.716 247.065C283.393 247.196 282.887 242.978 283.411 240.571C284.479 235.663 285.347 230.699 286.487 224.727C287.319 227.172 287.789 228.646 288.314 230.12C288.766 231.352 289.273 232.807 290.756 232.789C292.24 232.789 292.873 231.464 293.126 230.101C294.067 224.988 294.99 219.875 295.93 214.761C297.143 208.099 297.884 201.306 301.34 194.83C307.129 201.773 315.65 202.127 323.375 205.206C320.607 207.931 318.074 210.413 315.541 212.895C308.811 219.483 302.335 226.201 297.143 234.226C292.367 241.635 285.962 247.7 278.472 252.458C277.315 253.186 275.94 254.455 274.474 253.616C272.937 252.738 273.624 250.947 273.751 249.622C274.927 237.473 276.482 225.343 277.297 213.175C277.514 209.891 280.933 212.671 280.806 210.264L280.734 210.226L280.752 210.245Z" fill="#FCFCFC"/>
<path d="M226.986 404.739C212.748 405.971 198.89 404.926 185.032 403.638C168.442 402.089 151.871 400.428 135.571 396.77C121.514 393.616 118.854 388.652 123.287 373.163C124.843 376.765 125.657 380.18 125.783 383.763C126 389.791 127.81 391.713 134.069 391.993C143.929 392.422 153.861 392.291 163.612 393.896C184.761 397.349 205.873 401.1 227.004 404.72L226.986 404.739Z" fill="#D1D1D1"/>
<path d="M352.304 215.283C357.894 216.403 361.15 219.221 364.135 223.271C370.395 231.762 379.621 236.931 387.998 242.978C391.598 245.572 395.288 248.054 399.359 250.89C394.565 253.802 389.734 253.279 385.356 254.436C384.85 254.567 383.945 253.802 383.421 253.279C378.084 247.774 371.517 243.817 365.637 238.965C358.256 232.882 353.389 225.379 352.286 215.265L352.304 215.283Z" fill="#F9F9FA"/>
<path d="M286.433 344.217C285.131 344.217 283.846 344.217 282.544 344.217C279.396 344.18 276.085 344.329 275.723 339.906C275.307 334.756 276.863 332.759 281.874 332.18C288.333 331.415 294.755 330.557 300.526 327.291C302.498 326.171 304.072 326.339 305.737 327.981C310.024 332.199 314.565 336.118 320.029 338.824C322.308 339.962 321.422 340.933 319.757 341.735C315.633 343.713 312.648 342.314 310.35 338.563C309.717 337.518 309.029 335.801 307.546 336.342C305.628 337.032 306.967 338.357 307.455 339.477C308.487 341.847 306.623 341.791 305.23 342.034C299.007 343.097 292.765 344.143 286.415 344.236L286.433 344.217Z" fill="#FCFCFC"/>
<path d="M270.439 143.173C272.592 161.219 275.74 177.884 276.029 195.035C272.339 179.639 261.213 167.751 257.052 152.616C255.387 146.551 255.767 141.139 260.055 135.316C259.946 137.63 259.928 139.254 259.783 140.878C259.621 142.651 259.205 144.423 259.114 146.196C259.006 148.268 258.445 150.88 260.652 151.944C263.112 153.12 264.288 150.526 265.663 149.07C267.092 147.559 268.304 145.842 270.439 143.192V143.173Z" fill="#FAFAFA"/>
<path d="M564.421 337.033C554.254 342.706 543.96 348.156 534.245 354.631C525.905 360.193 525.489 361.294 529.342 370.457C530.79 373.891 532.291 377.287 533.847 380.907C530.229 381.523 528.365 380.217 527.28 376.802C525.561 371.39 523.861 365.978 522.269 360.529C521.02 356.255 522.16 353.866 525.941 351.925C538.044 345.73 550.636 340.728 563.354 335.988C564.421 335.615 564.62 336.119 564.421 337.033Z" fill="#F4F4F4"/>
<path d="M656.162 452.961C658.803 450.759 661.897 450.927 664.918 451.169C669.622 451.561 674.271 452.494 678.595 454.323C686.374 457.608 693.629 457.813 700.377 451.972C701.155 451.3 702.132 450.479 703.416 450.871C703.416 457.402 701.282 460.295 695.366 460.93C682.883 462.273 670.87 460.015 659.256 455.424C658.514 455.126 657.808 454.696 657.157 454.23C656.777 453.969 656.56 453.483 656.162 452.98V452.961Z" fill="#D1D1D1"/>
<path d="M362.939 156.927C362.939 155.285 362.849 154.93 362.939 154.65C363.772 152.429 360.28 148.454 365.617 148.006C372.419 147.428 374.699 148.771 375.495 154.109C375.73 155.714 375.784 157.356 375.965 158.961C377.141 169.953 376.888 170.139 366.286 167.359C364.857 166.986 364.043 166.407 363.898 164.821C363.609 161.76 363.157 158.7 362.939 156.927Z" fill="#357A67"/>
<path d="M298.083 194.792C293.904 206.176 293.325 217.299 290.34 228.067C289.852 225.921 289.454 223.756 288.839 221.647C288.495 220.471 288.133 218.885 286.487 219.016C285.221 219.128 284.714 220.509 284.479 221.554C283.538 225.79 282.76 230.064 281.801 234.953C279.504 218.754 282.362 211.682 298.083 194.792Z" fill="#357A67"/>
<path d="M250.359 322.775C257.939 325.78 264.633 328.43 271.345 331.117C272.231 331.472 273.516 332.05 272.484 333.114C268.884 336.753 268.794 342.016 266.46 345.935C263.945 336.66 252.892 333.375 250.377 322.794L250.359 322.775Z" fill="#F5F5F5"/>
<path d="M344.994 209.666C340.942 207.725 335.569 208.603 333.307 203.769C330.051 196.846 330.25 189.231 333.687 183.409C333.542 190.183 335.931 195.073 340.996 199.309C343.565 201.455 342.878 206.344 344.994 209.666Z" fill="#F1F0F0"/>
<path d="M520.803 103.311C509.731 96.2751 510.726 99.205 516.317 88.8477C517.547 86.5709 518.886 84.3315 520.261 82.1293C520.948 81.0469 520.858 78.7888 523.028 79.5913C525.272 80.3938 524.222 82.26 523.915 83.7529C523.39 86.291 522.848 88.829 522.196 91.3484C521.219 95.1181 520.333 98.8878 520.803 103.311Z" fill="#332F2F"/>
<path d="M259.062 53.2229C268.072 50.5542 276.683 46.9151 284.915 42.2683C279.469 47.9042 272.595 51.1327 265.991 54.6785C264.526 55.4623 262.066 54.3613 260.076 54.1373C259.044 54.6039 258.9 54.0813 259.062 53.2229Z" fill="#E3E3E2"/>
<path d="M267.474 349.706C270.368 345.843 270.043 341.234 273.281 336.848C273.335 340.674 272.865 343.828 276.067 345.526C278.889 347.038 281.965 346.944 285.004 347.485C279.486 348.176 273.968 348.885 267.474 349.706Z" fill="#DFDEDE"/>
<path d="M352.448 166.387C348.793 163.663 346.061 162.095 344.071 159.557C345.971 157.467 347.925 156.646 350.476 158.064C353.804 159.93 351.905 162.748 352.448 166.387Z" fill="#357A67"/>
<path d="M517.351 178.314C520.119 172.697 524.533 168.498 529.092 164.429C526.414 170.084 522.289 174.544 517.351 178.314Z" fill="#B8B7B6"/>
<path d="M350.24 204.944C353.949 205.504 356.771 206.866 359.666 208.303C352.863 211.867 352.465 211.737 350.24 204.944Z" fill="#E0DFDF"/>
<path d="M257.416 65.0544C250.577 71.4368 250.812 79.7414 250.921 88.0087C248.84 75.4118 250.523 69.1974 257.416 65.0544Z" fill="#8E8D8D"/>
<path d="M398.454 245.421C397.586 241.204 398.871 239.095 405.329 233.664C403.538 238.348 400.77 241.39 398.454 245.421Z" fill="#357A67"/>
<path d="M259.062 53.2222L260.075 54.1366C255.48 56.0028 250.848 57.7757 244.661 58.7461C249.98 55.8908 254.34 54.062 259.062 53.2222Z" fill="#ABAAAA"/>
<path d="M337.197 171.297C335.387 171.894 333.56 172.491 331.751 173.107C330.648 173.48 329.417 173.966 329.164 172.211C329.001 170.942 329.779 169.841 331.046 169.841C333.09 169.841 335.152 170.215 337.197 170.42V171.278V171.297Z" fill="#357A67"/>
<path d="M590.128 168.161C586.528 168.143 584.014 169.561 581.228 170.606C584.918 164.541 586.275 164.074 590.128 168.161Z" fill="#C9C8C8"/>
<path d="M399.176 254.232C395.63 256.471 391.976 258.207 387.58 256.415C391.451 255.688 395.305 254.96 399.176 254.232Z" fill="#357A67"/>
<path d="M419.728 224.632C415.929 226.909 412.112 229.167 407.933 231.668C411.117 227.282 414.427 225.174 419.728 224.632Z" fill="#357A67"/>
<path d="M549.768 335.952C550.22 336.978 551.233 337.034 552.12 337.277C549.135 338.565 546.15 339.871 543.165 341.177C542.134 341.494 541.916 341.047 542.152 340.132C544.684 338.751 547.235 337.352 549.768 335.971V335.952Z" fill="#D3D2D2"/>
<path d="M173.145 278.417C174.574 277.185 176.003 275.935 177.451 274.703C178.229 274.05 179.187 273.583 179.947 274.479C180.997 275.729 179.947 276.532 178.97 277.073C177.36 277.969 175.66 278.715 173.995 279.536L173.127 278.398L173.145 278.417Z" fill="#DADAD9"/>
<path d="M159.829 129.587L161.729 130.483L154.293 135.578C155.27 132.723 157.152 130.782 159.829 129.587Z" fill="#ACABAB"/>
<path d="M542.152 340.114L543.165 341.159C540.307 342.502 537.448 343.846 534.59 345.19L534.083 344.201L542.152 340.114Z" fill="#878686"/>
<path d="M445.508 363.646C443.319 366.482 441.365 365.12 439.411 363.329L445.508 363.646Z" fill="#9B9B9B"/>
<path d="M564.422 337.034L563.355 335.989C565.652 334.981 567.932 333.992 570.229 332.984C568.836 335.317 566.629 336.157 564.422 337.034Z" fill="#A7A6A6"/>
</svg>
