<svg width="208" height="60" viewBox="0 0 208 60" fill="none" xmlns="http://www.w3.org/2000/svg">
<path d="M39.2748 42.6313C38.4896 42.6313 37.8614 42.4115 37.3903 41.9717C36.9505 41.532 36.7307 40.9352 36.7307 40.1814C36.7307 39.7103 36.8406 39.1763 37.0605 38.5795C37.2803 37.9827 37.6258 37.3703 38.097 36.7421C38.8194 35.7684 39.5104 34.9203 40.17 34.1979C40.8296 33.4441 41.3164 32.7688 41.6305 32.172C41.9446 31.6066 42.1017 31.1669 42.1017 30.8528C42.1017 30.3816 41.819 30.1461 41.2536 30.1461C40.7511 30.1461 40.0286 30.4288 39.0864 30.9941C38.1755 31.5281 37.2175 32.4076 36.2124 33.6325C35.647 34.3235 35.0031 35.1402 34.2807 36.0825C33.5583 36.9933 32.9772 37.8414 32.5375 38.6266C32.349 38.9721 32.1606 39.3333 31.9721 39.7103C31.8151 40.0558 31.5638 40.6525 31.2183 41.5006C31.1241 41.7205 30.8571 41.956 30.4173 42.2073C30.009 42.4586 29.6792 42.5842 29.4279 42.5842C29.2395 42.5842 29.1453 42.5057 29.1453 42.3487C29.1453 42.223 29.1924 42.066 29.2866 41.8775C29.4436 41.5948 29.7892 40.6997 30.3231 39.192C30.8885 37.6843 31.5952 35.9097 32.4433 33.8681C31.9721 34.3706 31.4539 34.9203 30.8885 35.5171C30.3231 36.0825 29.6949 36.6321 29.0039 37.1661C28.8783 37.2917 28.7369 37.3545 28.5799 37.3545C28.3914 37.3545 28.2972 37.276 28.2972 37.119C28.2972 36.9933 28.4385 36.8206 28.7212 36.6007C29.4436 35.9725 30.1661 35.3129 30.8885 34.6219C31.6109 33.8995 32.3961 33.0043 33.2442 31.9364C33.5269 31.2454 34.0294 30.256 34.7519 28.9682C35.4743 27.649 36.338 26.1885 37.3431 24.5866C38.3482 22.9847 39.4633 21.3828 40.6882 19.7809C41.9132 18.179 43.1696 16.7499 44.4574 15.4935C45.6195 14.3628 46.8288 13.499 48.0852 12.9023C49.373 12.3055 50.5351 12.0071 51.5716 12.0071C52.4825 12.0071 53.2206 12.2269 53.786 12.6667C54.3514 13.1064 54.6341 13.8131 54.6341 14.7868C54.6341 15.7605 54.3671 16.797 53.8331 17.8964C53.2992 18.9957 52.7338 19.8752 52.137 20.5348C50.7864 22.0424 49.1845 23.4244 47.3314 24.6808C45.5096 25.9372 43.5936 27.0051 41.5834 27.8846C41.5206 27.916 41.4578 27.9474 41.395 27.9788C41.3321 27.9788 41.2693 27.9788 41.2065 27.9788C40.9866 27.9788 40.8767 27.9003 40.8767 27.7432C40.8767 27.5548 41.0495 27.3977 41.395 27.2721C42.5885 26.7381 43.7978 26.0785 45.0228 25.2933C46.2791 24.5081 47.4413 23.66 48.5092 22.7491C49.5771 21.8383 50.4723 20.9274 51.1947 20.0165C52.0428 18.9486 52.5924 18.0848 52.8437 17.4252C53.095 16.7342 53.2206 16.1531 53.2206 15.682C53.2206 15.0538 52.8751 14.7397 52.1841 14.7397C51.87 14.7397 51.4146 14.8968 50.8178 15.2109C50.221 15.4935 49.5143 15.9647 48.6977 16.6243C47.4413 17.6294 46.1378 18.8544 44.7872 20.2992C43.468 21.744 42.1645 23.3145 40.8767 25.0106C39.6203 26.7067 38.4268 28.4343 37.296 30.1932C36.1653 31.9521 35.1445 33.6639 34.2336 35.3286C34.6105 34.7947 35.0031 34.2607 35.4115 33.7268C35.8198 33.1614 36.2281 32.6588 36.6364 32.2191C37.5787 31.1826 38.5053 30.4288 39.4162 29.9576C40.327 29.4865 41.1437 29.2509 41.8661 29.2509C42.6828 29.2509 43.3424 29.5022 43.8449 30.0047C44.3475 30.4759 44.5987 31.1198 44.5987 31.9364C44.5987 32.3761 44.5202 32.8159 44.3632 33.2556C44.2375 33.6639 44.0805 34.0408 43.892 34.3863C43.6407 34.9203 43.3109 35.5485 42.9026 36.2709C42.4943 36.9933 42.1017 37.6686 41.7248 38.2968C41.0023 39.459 40.6411 40.2913 40.6411 40.7939C40.6411 41.0766 40.7668 41.2179 41.018 41.2179C41.3321 41.2179 41.8504 40.998 42.5728 40.5583C43.1382 40.2128 43.7664 39.7731 44.4574 39.2391C45.1798 38.6737 45.8865 38.0927 46.5775 37.4959C47.2999 36.8991 47.9124 36.3809 48.415 35.9411C48.9489 35.47 49.2945 35.1559 49.4515 34.9988C49.64 34.8104 49.7813 34.7161 49.8755 34.7161C49.9698 34.7161 50.0169 34.7633 50.0169 34.8575C50.0169 35.0145 49.9069 35.2344 49.6871 35.5171C48.8704 36.3651 47.8496 37.3231 46.6246 38.3911C45.3997 39.459 44.0177 40.4955 42.4786 41.5006C41.8818 41.9089 41.3007 42.2073 40.7354 42.3958C40.2014 42.5528 39.7146 42.6313 39.2748 42.6313ZM58.6068 28.1673C58.167 28.1673 57.8372 28.0259 57.6174 27.7432C57.3975 27.4606 57.2876 27.1622 57.2876 26.8481C57.2876 26.2199 57.5859 25.6074 58.1827 25.0106C58.7795 24.3824 59.4077 24.0683 60.0673 24.0683C60.507 24.0683 60.8368 24.2097 61.0567 24.4924C61.2766 24.775 61.3865 25.0734 61.3865 25.3875C61.3865 26.0471 61.0881 26.6753 60.4913 27.2721C59.926 27.8689 59.2978 28.1673 58.6068 28.1673ZM51.3983 42.6313C50.1105 42.6313 49.231 42.3644 48.7599 41.8304C48.3201 41.265 48.1003 40.6368 48.1003 39.9458C48.1003 39.3805 48.1945 38.8465 48.383 38.3439C48.5714 37.81 48.7285 37.4331 48.8541 37.2132C49.0426 36.8991 49.2938 36.5379 49.6079 36.1296C49.9534 35.7213 50.3303 35.2815 50.7387 34.8104C50.1105 35.3443 49.5137 35.8626 48.9483 36.3651C48.4144 36.8677 47.9746 37.2446 47.6291 37.4959C47.5349 37.5901 47.4407 37.6372 47.3464 37.6372C47.2208 37.6372 47.158 37.5587 47.158 37.4017C47.158 37.1504 47.3307 36.8991 47.6762 36.6478C48.4929 35.9568 49.2781 35.203 50.032 34.3863C50.8172 33.5697 51.5553 32.8159 52.2463 32.1249C52.9373 31.4024 53.5498 30.8999 54.0838 30.6172C54.6492 30.3031 55.1046 30.099 55.4501 30.0047C55.7956 29.9105 56.0783 29.8634 56.2982 29.8634C56.6437 29.8634 56.8949 29.9262 57.052 30.0518C57.209 30.1461 57.2404 30.256 57.1462 30.3816C56.6122 30.9156 56.0783 31.6066 55.5443 32.4547C55.0418 33.2713 54.5706 34.1351 54.1309 35.0459C53.6912 35.9568 53.33 36.8206 53.0473 37.6372C52.796 38.4539 52.6704 39.1449 52.6704 39.7103C52.6704 40.4955 52.9845 40.8881 53.6126 40.8881C54.2094 40.8881 54.979 40.6211 55.9212 40.0872C56.8949 39.5218 57.9 38.8151 58.9366 37.967C60.0045 37.119 60.9939 36.2866 61.9047 35.47C62.0304 35.3443 62.1403 35.2815 62.2345 35.2815C62.3916 35.2815 62.4701 35.36 62.4701 35.5171C62.5015 35.6741 62.4701 35.7841 62.3759 35.8469C61.3394 36.8206 60.1615 37.8414 58.8423 38.9093C57.5545 39.9458 56.251 40.8253 54.9318 41.5477C53.6441 42.2701 52.4662 42.6313 51.3983 42.6313ZM63.6664 42.6313C62.6927 42.6313 61.9389 42.333 61.4049 41.7362C60.8709 41.108 60.604 40.307 60.604 39.3333C60.604 38.4225 60.8395 37.4174 61.3107 36.318C61.8132 35.2187 62.5985 34.1037 63.6664 32.9729C64.7657 31.7794 66.132 30.8214 67.7653 30.099C69.3986 29.3451 70.9534 28.9682 72.4296 28.9682C73.6232 28.9682 74.644 29.2352 75.4921 29.7692C76.3401 30.2717 76.9055 30.9156 77.1882 31.7008C77.5337 31.7008 77.9577 31.7951 78.4603 31.9835C78.9942 32.172 79.2612 32.5175 79.2612 33.02C79.2612 33.3655 79.0884 33.7582 78.7429 34.1979C78.5231 34.512 78.1305 34.9831 77.5651 35.6113C77.0311 36.2395 76.5286 36.9148 76.0574 37.6372C75.6805 38.2026 75.3821 38.7366 75.1623 39.2391C74.9424 39.7103 74.8325 40.1186 74.8325 40.4641C74.8325 40.9352 75.068 41.1708 75.5392 41.1708C76.0731 41.1708 76.8741 40.8724 77.942 40.2756C79.1041 39.616 80.2192 38.8622 81.2871 38.0141C82.355 37.1661 83.1874 36.4908 83.7842 35.9882C83.9412 35.8626 84.0511 35.7998 84.114 35.7998C84.2396 35.7998 84.3024 35.8783 84.3024 36.0353C84.3024 36.2238 84.2239 36.3966 84.0668 36.5536C83.7842 36.8049 83.2345 37.276 82.4178 37.967C81.6012 38.658 80.6589 39.3805 79.591 40.1343C78.5545 40.8881 77.5337 41.5006 76.5286 41.9717C76.026 42.1916 75.5549 42.3644 75.1151 42.49C74.7068 42.5842 74.3299 42.6313 73.9844 42.6313C73.1363 42.6313 72.4924 42.3958 72.0527 41.9246C71.613 41.4221 71.3931 40.7782 71.3931 39.9929C71.3931 39.6789 71.4402 39.3491 71.5345 39.0035C71.6287 38.658 71.7386 38.3125 71.8643 37.967L72.1941 37.1661C71.3774 38.1712 70.5608 39.0193 69.7441 39.7103C68.9275 40.3699 68.1108 40.9509 67.2942 41.4535C66.6032 41.8618 65.9436 42.1602 65.3154 42.3487C64.7186 42.5371 64.1689 42.6313 63.6664 42.6313ZM65.1269 41.4064C65.6923 41.4064 66.5089 41.0766 67.5769 40.417C68.6448 39.726 69.8855 38.6737 71.2989 37.2603C71.4873 37.0719 71.8328 36.7421 72.3354 36.2709C72.8694 35.7684 73.4347 35.2187 74.0315 34.6219C74.6283 33.9937 75.1308 33.3812 75.5392 32.7845C75.9789 32.1563 76.1988 31.638 76.1988 31.2297C76.1988 30.6329 75.6805 30.3345 74.644 30.3345C73.7331 30.3345 72.6338 30.6957 71.346 31.4182C70.0896 32.1092 68.8804 33.1457 67.7182 34.5277C66.5246 35.9411 65.6452 37.1661 65.0798 38.2026C64.5458 39.2077 64.2789 39.9772 64.2789 40.5112C64.2789 41.108 64.5616 41.4064 65.1269 41.4064ZM138.747 53.3734C137.962 53.3734 137.114 53.1692 136.203 52.7609C135.323 52.384 134.585 51.8029 133.988 51.0177C133.423 50.2639 133.172 49.3373 133.235 48.2379C133.266 47.5783 133.329 46.9187 133.423 46.2591C133.549 45.6309 133.8 44.8614 134.177 43.9505C134.585 43.0397 135.213 41.8618 136.061 40.417C136.941 38.9407 138.15 37.0719 139.689 34.8104C141.26 32.5489 143.254 29.722 145.673 26.3298C146.835 24.7279 147.652 23.4087 148.123 22.3722C148.594 21.3357 148.829 20.5191 148.829 19.9223C148.829 19.4197 148.688 19.0585 148.405 18.8386C148.123 18.6188 147.762 18.5088 147.322 18.5088C146.694 18.5088 145.94 18.6973 145.06 19.0742C144.212 19.4511 143.396 19.938 142.61 20.5348C141.134 21.6341 139.626 22.8905 138.087 24.3039C136.548 25.6859 135.056 27.1151 133.612 28.5913C132.167 30.0675 130.816 31.4967 129.56 32.8787C128.523 34.5434 127.549 36.0668 126.639 37.4488C125.728 38.7994 125.068 39.7731 124.66 40.3699C124.534 40.5897 124.33 40.7468 124.047 40.841C123.796 40.9352 123.545 40.9823 123.294 40.9823C122.854 40.9823 122.461 40.8724 122.116 40.6525C121.77 40.4013 121.692 40.1029 121.88 39.7574C121.88 39.7574 122.069 39.4276 122.445 38.768C122.822 38.1084 123.309 37.2289 123.906 36.1296C124.534 35.0302 125.194 33.821 125.885 32.5018C126.607 31.1826 127.298 29.8791 127.958 28.5913C128.617 27.2721 129.183 26.0628 129.654 24.9635C130.156 23.8642 130.486 23.0004 130.643 22.3722C130.832 21.5556 130.926 20.8017 130.926 20.1107C130.926 19.4197 130.8 18.8701 130.549 18.4617C130.298 18.022 129.858 17.8021 129.23 17.8021C128.822 17.8021 128.303 17.9278 127.675 18.1791C127.047 18.4303 126.309 18.8229 125.461 19.3569C124.016 20.2992 122.383 21.5399 120.561 23.0789C118.771 24.5866 116.902 26.2827 114.954 28.1673C113.038 30.0204 111.122 31.9364 109.206 33.9152C107.322 35.8626 105.563 37.7629 103.93 39.616C103.835 39.7103 103.725 39.7574 103.6 39.7574C102.406 41.2964 101.511 42.3015 100.914 42.7727C100.349 43.2438 100.066 43.3381 100.066 43.0554C100.066 42.4272 100.93 41.0295 102.657 38.8622C104.008 37.1975 105.453 35.4386 106.992 33.5854C108.562 31.7008 110.023 29.832 111.374 27.9788C112.756 26.1257 113.855 24.3981 114.672 22.7962C115.488 21.1944 115.897 19.8438 115.897 18.7444C115.897 17.2682 115.284 16.2474 114.059 15.682C112.866 15.1166 111.342 14.8339 109.489 14.8339C108.013 14.8339 106.427 14.9753 104.73 15.258C103.066 15.5092 101.401 15.839 99.7364 16.2474C98.1031 16.6243 96.5954 17.0326 95.2134 17.4723C93.8314 17.8807 92.7164 18.2262 91.8683 18.5088C90.4863 18.98 89.2142 19.4825 88.052 20.0165C86.8899 20.5505 85.9633 21.1001 85.2723 21.6655C84.6127 22.1995 84.2829 22.7491 84.2829 23.3145C84.2829 23.8485 84.6441 24.3667 85.3665 24.8693C85.4294 24.9007 85.4608 24.9478 85.4608 25.0106C85.4608 25.0734 85.3822 25.1048 85.2252 25.1048C85.0681 25.1048 84.9111 25.0577 84.7541 24.9635C83.8432 24.3353 83.3877 23.4244 83.3877 22.2309C83.3877 21.3514 83.6861 20.4248 84.2829 19.4511C84.8797 18.4774 85.8063 17.6451 87.0627 16.9541C88.6645 16.0432 90.4549 15.2266 92.4337 14.5041C94.4125 13.7503 96.4541 13.1221 98.5585 12.6196C100.663 12.0856 102.736 11.693 104.778 11.4417C106.851 11.159 108.767 11.0177 110.526 11.0177C112.85 11.0177 114.672 11.2533 115.991 11.7244C117.341 12.1955 118.299 12.8394 118.865 13.6561C119.43 14.4727 119.713 15.3836 119.713 16.3887C119.713 17.7393 119.304 19.1684 118.488 20.6761C117.703 22.1838 116.823 23.5344 115.849 24.7279C114.97 25.7959 113.839 27.1308 112.457 28.7326C111.107 30.3345 109.772 31.9521 108.453 33.5854C110.368 31.5752 112.316 29.6121 114.295 27.6961C116.273 25.7801 118.189 24.0369 120.043 22.4664C121.896 20.896 123.56 19.6239 125.037 18.6502C126.639 17.6137 128.036 16.8756 129.23 16.4358C130.455 15.9647 131.491 15.7291 132.339 15.7291C133.533 15.7291 134.381 16.0903 134.884 16.8127C135.418 17.5352 135.685 18.4303 135.685 19.4982C135.685 20.629 135.418 21.854 134.884 23.1732C134.538 24.0212 134.083 24.9949 133.517 26.0942C132.952 27.1622 132.324 28.2772 131.633 29.4394C133.266 27.7432 134.994 26.0471 136.815 24.351C138.668 22.6549 140.459 21.163 142.186 19.8752C143.694 18.7758 145.28 17.865 146.945 17.1425C148.61 16.4201 150.023 16.0589 151.185 16.0589C151.876 16.0589 152.426 16.216 152.834 16.5301C153.242 16.8127 153.447 17.2839 153.447 17.9435C153.447 18.5089 153.258 19.2313 152.881 20.1107C152.504 20.9902 151.908 22.0424 151.091 23.2674C147.887 28.0102 145.28 32.0935 143.27 35.5171C141.291 38.9093 139.831 41.7362 138.888 43.9977C137.946 46.2591 137.412 48.0652 137.286 49.4158C137.255 49.5728 137.239 49.7299 137.239 49.8869C137.239 50.044 137.239 50.201 137.239 50.3581C137.239 51.2375 137.381 51.85 137.663 52.1955C137.977 52.5724 138.323 52.7609 138.7 52.7609C139.171 52.7609 139.611 52.5882 140.019 52.2426C140.145 52.1798 140.223 52.1484 140.255 52.1484C140.412 52.1484 140.537 52.2269 140.632 52.384C140.726 52.541 140.694 52.6981 140.537 52.8551C140.098 53.2006 139.501 53.3734 138.747 53.3734ZM150.442 43.0554C149.06 43.0554 147.897 42.7256 146.955 42.066C146.044 41.375 145.589 40.3856 145.589 39.0978C145.589 37.7158 145.919 36.428 146.578 35.2344C147.238 34.0408 148.117 33.0043 149.217 32.1249C150.316 31.214 151.51 30.5073 152.797 30.0047C154.117 29.5022 155.42 29.2509 156.708 29.2509C157.996 29.2509 158.954 29.4865 159.582 29.9576C160.21 30.3973 160.524 30.947 160.524 31.6066C160.524 32.2348 160.226 32.9101 159.629 33.6325C159.064 34.3235 158.231 34.936 157.132 35.47C156.441 35.7841 155.64 36.0668 154.729 36.318C153.85 36.5379 153.08 36.6478 152.42 36.6478C151.918 36.6478 151.667 36.5693 151.667 36.4123C151.667 36.2866 151.886 36.2238 152.326 36.2238C152.735 36.2238 153.363 36.1139 154.211 35.894C155.09 35.6427 155.938 35.3129 156.755 34.9046C157.666 34.4021 158.31 33.8995 158.687 33.397C159.064 32.8944 159.252 32.439 159.252 32.0306C159.252 31.6537 159.095 31.3396 158.781 31.0884C158.498 30.8371 158.09 30.7114 157.556 30.7114C157.053 30.7114 156.488 30.8528 155.86 31.1355C154.949 31.5438 154.007 32.2191 153.033 33.1614C152.091 34.0723 151.305 35.0774 150.677 36.1767C150.049 37.276 149.735 38.3282 149.735 39.3333C149.735 40.0244 149.923 40.6054 150.3 41.0766C150.709 41.5477 151.305 41.7833 152.091 41.7833C152.907 41.7833 153.85 41.532 154.917 41.0295C155.985 40.4955 157.069 39.8516 158.168 39.0978C159.268 38.3125 160.288 37.5273 161.231 36.7421C162.173 35.9568 162.927 35.2972 163.492 34.7633C163.681 34.5748 163.822 34.4806 163.916 34.4806C164.011 34.4806 164.058 34.5591 164.058 34.7161C164.058 34.936 163.963 35.1245 163.775 35.2815C162.581 36.3809 161.278 37.5273 159.864 38.7209C158.482 39.9144 156.99 40.9352 155.389 41.7833C153.818 42.5999 152.169 43.024 150.442 43.0554ZM166.453 43.0554C165.071 43.0554 163.909 42.7256 162.967 42.066C162.056 41.375 161.6 40.3856 161.6 39.0978C161.6 37.7158 161.93 36.428 162.59 35.2344C163.249 34.0408 164.129 33.0043 165.228 32.1249C166.327 31.214 167.521 30.5073 168.809 30.0047C170.128 29.5022 171.431 29.2509 172.719 29.2509C174.007 29.2509 174.965 29.4865 175.593 29.9576C176.221 30.3973 176.536 30.947 176.536 31.6066C176.536 32.2348 176.237 32.9101 175.64 33.6325C175.075 34.3235 174.243 34.936 173.143 35.47C172.452 35.7841 171.651 36.0668 170.74 36.318C169.861 36.5379 169.091 36.6478 168.432 36.6478C167.929 36.6478 167.678 36.5693 167.678 36.4123C167.678 36.2866 167.898 36.2238 168.338 36.2238C168.746 36.2238 169.374 36.1139 170.222 35.894C171.102 35.6427 171.95 35.3129 172.766 34.9046C173.677 34.4021 174.321 33.8995 174.698 33.397C175.075 32.8944 175.263 32.439 175.263 32.0306C175.263 31.6537 175.106 31.3396 174.792 31.0884C174.51 30.8371 174.101 30.7114 173.567 30.7114C173.065 30.7114 172.499 30.8528 171.871 31.1355C170.96 31.5438 170.018 32.2191 169.044 33.1614C168.102 34.0723 167.317 35.0774 166.689 36.1767C166.06 37.276 165.746 38.3282 165.746 39.3333C165.746 40.0244 165.935 40.6054 166.312 41.0766C166.72 41.5477 167.317 41.7833 168.102 41.7833C168.919 41.7833 169.861 41.532 170.929 41.0295C171.997 40.4955 173.08 39.8516 174.18 39.0978C175.279 38.3125 176.3 37.5273 177.242 36.7421C178.185 35.9568 178.938 35.2972 179.504 34.7633C179.692 34.5748 179.834 34.4806 179.928 34.4806C180.022 34.4806 180.069 34.5591 180.069 34.7161C180.069 34.936 179.975 35.1245 179.786 35.2815C178.593 36.3809 177.289 37.5273 175.876 38.7209C174.494 39.9144 173.002 40.9352 171.4 41.7833C169.83 42.5999 168.181 43.024 166.453 43.0554ZM181.004 43.3852C179.999 43.3852 179.229 43.0868 178.695 42.49C178.161 41.8932 177.895 41.0609 177.895 39.9929C177.895 38.9878 178.161 37.81 178.695 36.4594L178.79 36.2238L177.942 37.0247C177.816 37.1504 177.675 37.2132 177.518 37.2132C177.361 37.2132 177.282 37.1504 177.282 37.0247C177.282 36.8677 177.392 36.6792 177.612 36.4594C178.428 35.737 179.261 34.9831 180.109 34.1979C180.988 33.3812 181.726 32.6117 182.323 31.8893C182.103 31.9835 181.868 32.0306 181.617 32.0306C181.365 32.0306 181.177 31.9678 181.051 31.8422C180.831 31.6851 180.721 31.4024 180.721 30.9941C180.721 30.6486 180.878 30.2874 181.192 29.9105C181.538 29.5336 182.229 29.2038 183.266 28.9211C183.485 28.8583 183.705 28.8112 183.925 28.7798C184.176 28.7483 184.412 28.7169 184.632 28.6855C185.637 27.2721 186.516 25.9686 187.27 24.775C188.024 23.5501 188.621 22.7334 189.061 22.3251C189.249 22.1052 189.579 21.9168 190.05 21.7597C190.553 21.6027 191.071 21.477 191.605 21.3828C192.17 21.2886 192.61 21.2415 192.924 21.2415C193.96 21.2415 194.479 21.3357 194.479 21.5242C194.479 21.6498 194.243 21.9482 193.772 22.4193C192.987 23.1732 192.06 24.1154 190.992 25.2462C189.956 26.3455 188.888 27.5391 187.788 28.8269C188.699 28.9525 189.532 29.1881 190.286 29.5336C191.071 29.8791 191.636 30.3188 191.982 30.8528C192.107 31.0098 192.17 31.1983 192.17 31.4182C192.17 31.6694 192.092 31.7951 191.935 31.7951C191.809 31.7951 191.668 31.7165 191.511 31.5595C190.851 30.8999 189.752 30.5701 188.213 30.5701C187.898 30.5701 187.569 30.5858 187.223 30.6172C186.909 30.6486 186.579 30.6957 186.234 30.7586C185.166 32.1406 184.192 33.5226 183.313 34.9046C182.433 36.2866 181.805 37.5744 181.428 38.768C181.24 39.3333 181.145 39.8516 181.145 40.3227C181.145 40.7939 181.255 41.1865 181.475 41.5006C181.695 41.7833 182.025 41.9246 182.465 41.9246C182.747 41.9246 183.093 41.8461 183.501 41.6891C184.098 41.4692 184.789 41.108 185.574 40.6054C186.359 40.0715 187.145 39.4747 187.93 38.8151C188.746 38.1555 189.5 37.5116 190.191 36.8834C190.914 36.2552 191.511 35.7213 191.982 35.2815C192.453 34.8418 192.72 34.5905 192.783 34.5277C192.877 34.4335 192.955 34.3863 193.018 34.3863C193.144 34.3863 193.207 34.4806 193.207 34.669C193.207 34.8889 193.112 35.0931 192.924 35.2815C192.61 35.5956 192.123 36.0668 191.463 36.6949C190.835 37.3231 190.097 38.0299 189.249 38.8151C188.432 39.5689 187.553 40.2913 186.611 40.9823C185.668 41.6734 184.71 42.2387 183.737 42.6785C182.794 43.1496 181.884 43.3852 181.004 43.3852ZM193.693 43.1025C192.436 43.1025 191.337 42.8669 190.395 42.3958C189.421 41.8932 188.714 40.9823 188.275 39.6631C188.243 39.5375 188.29 39.459 188.416 39.4276C188.51 39.3962 188.573 39.459 188.605 39.616C188.919 40.307 189.327 40.7939 189.829 41.0766C190.332 41.3593 190.882 41.5006 191.478 41.5006C192.484 41.5006 193.363 41.2022 194.117 40.6054C194.902 40.0086 195.593 39.2548 196.19 38.3439C196.818 37.4331 197.368 36.5065 197.839 35.5642C198.341 34.5905 198.813 33.7582 199.252 33.0672C199.943 31.905 200.76 30.8528 201.702 29.9105C202.676 28.9682 203.555 28.3871 204.341 28.1673C204.152 28.073 203.917 28.0259 203.634 28.0259C202.849 28.0259 201.985 28.2615 201.043 28.7326C200.1 29.2038 199.142 29.8163 198.169 30.5701C197.226 31.3239 196.3 32.1249 195.389 32.9729C194.509 33.7896 193.693 34.5591 192.939 35.2815C192.217 35.9725 191.636 36.5222 191.196 36.9305C190.945 37.1504 190.756 37.2603 190.63 37.2603C190.505 37.2603 190.442 37.1975 190.442 37.0719C190.442 36.8834 190.52 36.7107 190.678 36.5536C191.62 35.737 192.594 34.8261 193.599 33.821C194.604 32.7845 195.625 31.7951 196.661 30.8528C197.698 29.8791 198.75 29.0781 199.818 28.45C200.886 27.8218 201.969 27.5077 203.069 27.5077C203.194 27.5077 203.304 27.5077 203.398 27.5077C203.524 27.5077 203.65 27.5234 203.775 27.5548C204.121 27.5862 204.435 27.6804 204.718 27.8375C205.032 27.9945 205.126 28.1045 205 28.1673C204.278 28.4814 203.712 29.1096 203.304 30.0518C202.896 30.9941 202.519 32.0935 202.173 33.3498C201.828 34.6062 201.404 35.8783 200.901 37.1661C200.43 38.4539 199.739 39.6003 198.828 40.6054C199.268 40.4484 199.959 40.0872 200.901 39.5218C201.844 38.9564 202.88 38.2654 204.011 37.4488C205.142 36.6007 206.194 35.6741 207.168 34.669C207.293 34.5434 207.419 34.4806 207.544 34.4806C207.701 34.4806 207.78 34.5591 207.78 34.7161C207.78 34.8418 207.717 34.9674 207.592 35.0931C206.743 35.9097 205.801 36.7892 204.765 37.7315C203.728 38.6423 202.597 39.5061 201.372 40.3227C200.179 41.1394 198.938 41.8147 197.65 42.3487C196.363 42.8512 195.043 43.1025 193.693 43.1025Z" fill="white"/>
<path d="M35.5847 13.8786L35.5887 13.8716L35.5926 13.8645C35.6133 13.8262 35.6351 13.786 35.6579 13.7443C35.7541 13.5676 35.8655 13.363 35.964 13.1587L36.2538 13.1747C35.9905 13.6685 35.642 14.1534 35.3351 14.5803C35.2133 14.7497 35.0981 14.91 34.9973 15.0581C34.6917 15.4589 34.3812 15.8558 34.0662 16.2493C34.5973 15.4822 35.1157 14.6969 35.5847 13.8786ZM35.9081 12.1313L35.9099 12.0988L35.9228 11.8649C34.8212 11.8043 33.6913 12.1223 32.715 12.3971C32.5978 12.4301 32.4829 12.4624 32.3704 12.4934L32.3622 12.4957L32.354 12.4982C30.72 12.996 29.1202 13.5994 27.5646 14.3046L27.5642 14.3048C25.6609 15.1691 23.194 16.463 21.1411 18.0097C20.1144 18.7832 19.1731 19.6335 18.4566 20.5403C17.7423 21.4445 17.2233 22.4409 17.1036 23.5009L17.0732 23.7698L17.2439 23.9799C17.9675 24.8705 18.9517 25.5616 19.8631 26.2016C20.1173 26.3801 20.3659 26.5547 20.6016 26.7285L20.6026 26.7292C20.9004 26.9479 21.2004 27.1633 21.5 27.3783C22.4981 28.0946 23.4909 28.8072 24.3755 29.6272C25.5099 30.6787 26.4041 31.855 26.8123 33.3251C27.0832 34.3836 26.8537 35.5032 26.3124 36.5839C25.7706 37.6657 24.9397 38.6583 24.1035 39.4158C18.6095 44.3456 10.5907 43.9433 5.09762 39.2008L5.09765 39.2008L5.09199 39.196C4.47695 38.6772 3.89261 38.1244 3.34162 37.5403C5.70965 39.0502 8.28768 40.2765 11.0932 40.7078C13.072 41.0411 15.1009 40.9145 17.0229 40.3379C18.9465 39.7608 20.7113 38.7485 22.1806 37.3794L22.1868 37.3736L22.1929 37.3676C22.9629 36.6112 23.6373 35.8292 24.0509 34.7923L24.0617 34.7652L24.07 34.7372C24.1083 34.6084 24.1399 34.4777 24.1648 34.3456L24.1739 34.2968L24.1755 34.2471C24.1885 33.8396 24.044 33.4484 23.8717 33.1128C23.6954 32.7695 23.4556 32.4196 23.2057 32.0819L23.1997 32.0737L23.1933 32.0657C22.159 30.7567 20.7624 29.6126 19.4864 28.5673C19.4393 28.5286 19.3923 28.4902 19.3455 28.4518C19.0508 28.193 18.7081 27.9194 18.3619 27.643C18.2535 27.5565 18.1448 27.4697 18.037 27.3829C17.5716 27.0083 17.1073 26.6215 16.6913 26.2116C15.8542 25.3867 15.3117 24.5627 15.2767 23.6909C15.5203 21.1884 17.2732 19.0815 19.654 17.3409C22.0336 15.6012 24.9281 14.3113 27.2013 13.4265C28.8262 12.8029 30.4913 12.2895 32.1853 11.8901C32.4194 11.8459 32.6478 11.7997 32.8715 11.7544C34.0475 11.5166 35.0948 11.3048 36.1733 11.5408C36.5156 11.6754 36.5837 11.8302 36.6073 11.9415C36.623 12.0156 36.6253 12.1081 36.6101 12.22L36.2674 11.9873L36.2561 11.9592C36.2597 11.9682 36.263 11.9773 36.266 11.9864L36.2581 11.981L36.2513 11.9715L36.245 11.9637L36.2374 11.9543C36.2399 11.9574 36.2424 11.9606 36.2447 11.9638C36.2484 11.9687 36.2518 11.9738 36.255 11.9789L36.2495 11.9752C36.2517 11.9767 36.2538 11.9783 36.2557 11.9801C36.2579 11.9837 36.26 11.9873 36.262 11.991C36.2673 12.0005 36.2719 12.0104 36.2758 12.0206C36.2784 12.0313 36.2806 12.0421 36.2825 12.053C36.289 12.0922 36.2904 12.1321 36.2864 12.1719L36.1276 12.1548L36.0425 12.1457L36.0067 12.1419L35.9373 12.1344L35.9081 12.1313Z" fill="white" stroke="white" stroke-width="1.28965"/>
<path d="M17.6489 11.9841C17.7491 9.18702 18.4398 8.45941 21.0577 8.35132C21.2264 11.0482 20.6227 11.6915 17.6489 11.9841Z" fill="white"/>
<path d="M23.209 10.5733C23.3092 7.77882 23.9999 7.0512 26.6177 6.94312C26.7864 9.64004 26.1827 10.2833 23.209 10.5733Z" fill="white"/>
<path d="M20.4653 6.90161C20.5655 4.1045 21.2562 3.37689 23.8741 3.2688C24.0428 5.96309 23.4391 6.60635 20.4653 6.90161Z" fill="white"/>
</svg>
