<svg width="28" height="19" viewBox="0 0 28 19" fill="none" xmlns="http://www.w3.org/2000/svg">
<rect x="0.000976562" y="0.926758" width="27.309" height="18.0725" fill="#699635"/>
<rect x="0.000976562" y="0.926758" width="8.00244" height="18.0725" fill="white"/>
<path d="M18.6491 12.8035C16.47 12.8035 14.7195 11.0888 14.7195 8.94532C14.7195 7.90933 15.1124 7.01624 15.7912 6.30176C14.3265 7.05196 13.2905 8.58809 13.2905 10.3386C13.2905 12.8392 15.3625 14.8755 17.9346 14.8755C20.5068 14.8755 22.5787 12.8392 22.5787 10.3386C22.5787 10.0885 22.543 9.83842 22.5073 9.62408C22.1858 11.446 20.5782 12.8035 18.6491 12.8035Z" fill="white"/>
<path d="M19.3638 6.30131L20.2569 5.62256L19.8996 6.73L20.7927 7.37303L19.721 7.40875L19.3638 8.48047L19.0065 7.40875L17.9348 7.37303L18.8279 6.73L18.4707 5.62256L19.3638 6.30131Z" fill="white"/>
</svg>
